<?xml version="1.0" encoding="UTF-8"?><svg id="Capa_2" xmlns="http://www.w3.org/2000/svg" viewBox="0 0 22.96 22.52"><defs><style>.cls-1{fill:none;stroke:#231f20;stroke-linecap:round;stroke-linejoin:round;stroke-width:.5px;}</style></defs><g id="Capa_1-2"><circle class="cls-1" cx="15.83" cy="7.13" r="5.31"/><circle class="cls-1" cx="17.66" cy="5.3" r="1.17"/><path class="cls-1" d="M20.7,11.99c2.69-2.69,2.69-7.04,0-9.73-2.69-2.69-7.04-2.69-9.73,0-2.25,2.25-2.61,5.66-1.1,8.29L.25,20.17l.66,2.1,2.93-.17.06-1.24,1.24-.06.06-1.24,1.24-.06.65-.65.06-1.24,1.24-.06.06-1.24,1.24-.06.65-.65.06-1.24,1.24-.06.65-.65.41-.41c2.59,1.33,5.84.91,8-1.26Z"/><line class="cls-1" x1=".91" y1="22.27" x2="10.38" y2="12.8"/></g></svg>