<?xml version="1.0" encoding="UTF-8"?><svg id="Capa_2" xmlns="http://www.w3.org/2000/svg" viewBox="0 0 27.83 24.43"><defs><style>.cls-1{fill:#282828;fill-rule:evenodd;stroke-width:0px;}</style></defs><g id="Capa_1-2"><path class="cls-1" d="M4.76,16.73h6.92c.4,0,.72-.32.72-.72v-3.87c0-.4-.32-.72-.72-.72h-6.92c-.4,0-.72.32-.72.72v3.87c0,.4.32.72.72.72h0ZM5.48,12.85h5.48v2.43h-5.48v-2.43Z"/><path class="cls-1" d="M27.11,7.15h-6.21v-1.21h1.97c.4,0,.72-.32.72-.72V.72c0-.4-.32-.72-.72-.72H5.62c-.4,0-.72.32-.72.72v4.49c0,.4.32.72.72.72h1.97v1.21H.72c-.4,0-.72.32-.72.72v15.84c0,.4.32.72.72.72h26.38c.4,0,.72-.32.72-.72V7.87c0-.4-.32-.72-.72-.72h0ZM6.34,1.45h15.8v3.05H6.34V1.45h0ZM9.04,5.94h10.41v1.21h-10.41v-1.21h0ZM22.19,19.15h-2.54v-6.3h2.54v6.3h0ZM18.71,20.6h4.42v.43h-4.42v-.43h0ZM17.84,22.47h6.15v.51h-6.15v-.51h0ZM26.38,22.99h-.94v-1.24c0-.4-.32-.72-.72-.72h-.14v-1.15c0-.4-.32-.72-.72-.72h-.22v-7.02c0-.4-.32-.72-.72-.72h-3.99c-.4,0-.72.32-.72.72v7.02h-.21c-.4,0-.72.32-.72.72v1.15h-.14c-.4,0-.72.32-.72.72v1.24H1.45v-14.39h24.94v14.39Z"/></g></svg>