<?xml version="1.0" encoding="UTF-8"?><svg id="Capa_2" xmlns="http://www.w3.org/2000/svg" viewBox="0 0 28.52 27.11"><defs><style>.cls-1{fill:none;stroke:#231f20;stroke-linecap:round;stroke-linejoin:round;stroke-width:.5px;}.cls-2{fill:#231f20;stroke-width:0px;}</style></defs><g id="Capa_1-2"><polygon class="cls-1" points="14.26 14.55 7.26 19.32 .25 14.55 7.26 9.78 14.26 14.55"/><polygon class="cls-2" points="21.27 9.78 14.26 14.55 7.26 9.78 14.26 5.02 21.27 9.78"/><polyline class="cls-1" points="22.51 18.51 22.51 22.09 14.26 26.86 6.02 22.09 6.02 18.51"/><polygon class="cls-1" points="14.26 5.02 7.26 9.78 .25 5.02 7.26 .25 14.26 5.02"/><polygon class="cls-1" points="28.27 14.55 21.27 19.32 14.26 14.55 21.27 9.78 28.27 14.55"/><polygon class="cls-1" points="28.27 5.02 21.27 9.78 14.26 5.02 21.27 .25 28.27 5.02"/><line class="cls-1" x1="14.26" y1="26.86" x2="14.26" y2="14.55"/></g></svg>