<?xml version="1.0" encoding="UTF-8"?><svg id="Capa_2" xmlns="http://www.w3.org/2000/svg" viewBox="0 0 21.76 26.57"><defs><style>.cls-1{fill:none;stroke:#231f20;stroke-linecap:round;stroke-linejoin:round;stroke-width:.5px;}</style></defs><g id="Capa_1-2"><rect class="cls-1" x=".25" y=".25" width="21.26" height="26.07"/><rect class="cls-1" x="2.29" y="11.01" width="2.95" height="3.32"/><rect class="cls-1" x="7.01" y="11.01" width="2.95" height="3.32"/><rect class="cls-1" x="2.03" y="3.23" width="17.7" height="5.32"/><rect class="cls-1" x="11.73" y="11.01" width="2.95" height="3.32"/><rect class="cls-1" x="16.44" y="11.01" width="2.95" height="3.32"/><rect class="cls-1" x="2.29" y="15.95" width="2.95" height="3.32"/><rect class="cls-1" x="7.01" y="15.95" width="2.95" height="3.32"/><rect class="cls-1" x="11.73" y="15.95" width="2.95" height="3.32"/><rect class="cls-1" x="16.44" y="15.95" width="2.95" height="3.32"/><rect class="cls-1" x="2.29" y="20.89" width="2.95" height="3.32"/><rect class="cls-1" x="7.01" y="20.89" width="2.95" height="3.32"/><rect class="cls-1" x="11.73" y="20.89" width="2.95" height="3.32"/><rect class="cls-1" x="16.44" y="20.89" width="2.95" height="3.32"/><rect class="cls-1" x="3.22" y="4.33" width="1.48" height="3.23"/><rect class="cls-1" x="5.99" y="4.33" width="1.48" height="3.23"/><rect class="cls-1" x="8.76" y="4.33" width="1.48" height="3.23"/><rect class="cls-1" x="11.53" y="4.33" width="1.48" height="3.23"/><polyline class="cls-1" points="14.29 6.11 15.78 4.33 15.78 7.56"/><polyline class="cls-1" points="17.06 6.11 18.55 4.33 18.55 7.56"/></g></svg>