<?xml version="1.0" encoding="UTF-8"?><svg id="Capa_2" xmlns="http://www.w3.org/2000/svg" viewBox="0 0 25.4 25.29"><defs><style>.cls-1{fill:none;stroke:#231f20;stroke-linecap:round;stroke-linejoin:round;stroke-width:.5px;}</style></defs><g id="Capa_1-2"><path class="cls-1" d="M10.33,2.3H2.23c-1.1,0-1.98.89-1.98,1.98v18.78c0,1.1.89,1.98,1.98,1.98h18.78c1.1,0,1.98-.89,1.98-1.98v-8.1"/><path class="cls-1" d="M12.59,4.55H3.15c-.36,0-.64.29-.64.64v16.95c0,.36.29.64.64.64h16.95c.36,0,.64-.29.64-.64v-9.44"/><polyline class="cls-1" points="9.15 21.07 22.14 8.09 24.35 10.31 25.15 .25 15.1 1.05 17.31 3.27 9.16 11.42"/></g></svg>