<?xml version="1.0" encoding="UTF-8"?><svg id="Capa_2" xmlns="http://www.w3.org/2000/svg" viewBox="0 0 28.02 24.53"><defs><style>.cls-1{fill:none;stroke:#231f20;stroke-linecap:round;stroke-linejoin:round;stroke-width:.5px;}</style></defs><g id="Capa_1-2"><path class="cls-1" d="M24.46,15.27l1.01-11.54c.06-.64-.45-1.19-1.09-1.19h-7.46c-.48,0-.86-.41-.82-.89l.04-.5c.04-.48-.34-.89-.82-.89h-7.63c-.43,0-.78.33-.82.75l-.07.78c-.04.43-.39.75-.82.75h-.11c-.57,0-1.04.43-1.09,1l-.06.64"/><line class="cls-1" x1="7.83" y1="1.39" x2="15.14" y2="1.39"/><line class="cls-1" x1="7.73" y1="2.54" x2="15.04" y2="2.54"/><path class="cls-1" d="M12.15,17.67H3.99c-.37,0-.7-.25-.79-.61L.28,6.18c-.14-.52.25-1.04.79-1.04h4.35c.5,0,.93.33,1.06.81l.27,1c.1.36.42.61.79.61h12.97c.5,0,.93.33,1.06.81l.27,1"/><polyline class="cls-1" points="23.62 15.99 24.06 17.67 23.61 17.67"/><line class="cls-1" x1="11.13" y1="13.19" x2="9.7" y2="13.19"/><line class="cls-1" x1="9.32" y1="11.77" x2="11.39" y2="11.77"/><polyline class="cls-1" points="12.01 10.35 7.38 10.35 8.52 14.6 10.95 14.6"/><polyline class="cls-1" points="7.55 6.05 7.7 4.32 23.83 4.32 23.34 9.9"/><circle class="cls-1" cx="17.53" cy="14.04" r="5.56"/><circle class="cls-1" cx="17.53" cy="14.04" r="4.1"/><polyline class="cls-1" points="22.06 17.38 23.84 19.16 22.65 20.35 20.87 18.57"/><rect class="cls-1" x="23.68" y="19.02" width="2.71" height="5.05" transform="translate(-7.9 24.01) rotate(-45)"/><line class="cls-1" x1="25.91" y1="20.51" x2="24.07" y2="22.34"/><line class="cls-1" x1="25.06" y1="19.65" x2="23.22" y2="21.49"/></g></svg>