<?xml version="1.0" encoding="UTF-8"?><svg id="Capa_2" xmlns="http://www.w3.org/2000/svg" viewBox="0 0 25.14 27.97"><defs><style>.cls-1{fill:none;stroke:#231f20;stroke-linecap:round;stroke-linejoin:round;stroke-width:.5px;}</style></defs><g id="Capa_1-2"><circle class="cls-1" cx="14.77" cy="17.6" r="5.49"/><circle class="cls-1" cx="14.77" cy="17.6" r="4.05"/><polyline class="cls-1" points="18.06 22.07 19.83 23.84 21 22.66 19.24 20.9"/><rect class="cls-1" x="20.84" y="22.52" width="2.67" height="4.99" transform="translate(-11.19 23.01) rotate(-45)"/><line class="cls-1" x1="21.16" y1="25.88" x2="22.97" y2="24.07"/><line class="cls-1" x1="20.31" y1="25.04" x2="22.13" y2="23.22"/><polygon class="cls-1" points="15.91 5.59 15.91 .25 21.37 5.59 15.91 5.59"/><path class="cls-1" d="M20.86,20.73c.28,0,.51-.22.51-.5V5.59L15.91.25H6.52c-.28,0-.51.22-.51.5v19.48c0,.27.23.5.51.5h2.47"/><path class="cls-1" d="M6.01,2.17h-1.41c-.28,0-.51.22-.51.5v19.48c0,.27.23.5.51.5h5.59"/><path class="cls-1" d="M4.09,4.09h-1.41c-.28,0-.51.22-.51.5v19.48c0,.27.23.5.51.5h14.34c.28,0,.51-.22.51-.5v-.35"/><path class="cls-1" d="M2.17,6.01H.76c-.28,0-.51.22-.51.5v19.48c0,.27.23.5.51.5h14.34c.28,0,.51-.22.51-.5v-1.42"/><line class="cls-1" x1="8.4" y1="17.27" x2="8.18" y2="17.27"/><line class="cls-1" x1="8.69" y1="15.01" x2="8.18" y2="15.01"/><line class="cls-1" x1="10.48" y1="12.75" x2="8.18" y2="12.75"/><line class="cls-1" x1="19.19" y1="12.75" x2="18.91" y2="12.75"/><line class="cls-1" x1="19.19" y1="10.49" x2="8.18" y2="10.49"/><line class="cls-1" x1="19.19" y1="8.23" x2="8.18" y2="8.23"/><line class="cls-1" x1="14.63" y1="5.97" x2="8.18" y2="5.97"/><line class="cls-1" x1="14.37" y1="3.71" x2="8.18" y2="3.71"/></g></svg>