<?xml version="1.0" encoding="UTF-8"?><svg id="Capa_2" xmlns="http://www.w3.org/2000/svg" viewBox="0 0 28.55 25.09"><defs><style>.cls-1{fill:#282828;fill-rule:evenodd;stroke-width:0px;}</style></defs><g id="Capa_1-2"><path class="cls-1" d="M19.29,0c-1.19,0-2.2.84-2.45,1.96l-6.17,3.06h-4.82c-1.11,0-2.06.73-2.39,1.74-1.97.34-3.47,2.06-3.47,4.12s1.5,3.78,3.47,4.12c.24.74.82,1.33,1.55,1.59v6c0,1.38,1.13,2.51,2.51,2.51s2.51-1.13,2.51-2.51v-2.51h.84c1.22,0,2.24-.87,2.46-2.03l3.51,1.74c.25,1.12,1.25,1.96,2.45,1.96,1.38,0,2.51-1.13,2.51-2.51V2.51c0-1.38-1.13-2.51-2.51-2.51h0ZM3.35,13.24c-.97-.35-1.67-1.28-1.67-2.37s.7-2.02,1.67-2.37v4.73h0ZM8.36,22.58c0,.46-.38.84-.84.84s-.84-.38-.84-.84v-5.85h1.67v5.85h0ZM9.2,15.06h-3.34c-.46,0-.84-.38-.84-.84v-6.69c0-.46.38-.84.84-.84h4.18v8.36h-.84ZM11.71,17.57c0,.46-.38.84-.84.84h-.84v-1.67h.64l1.03.51v.33h0ZM16.78,17.89l-5.07-2.52V6.37l5.07-2.52v14.03h0ZM20.13,19.24c0,.46-.38.84-.84.84s-.84-.38-.84-.84V2.51c0-.46.38-.84.84-.84s.84.38.84.84v16.73Z"/><path class="cls-1" d="M27.71,10.04h-3.4c-.46,0-.84.37-.84.84s.37.84.84.84h3.4c.46,0,.84-.38.84-.84s-.37-.84-.84-.84Z"/><path class="cls-1" d="M28.08,15.14l-3.4-1.67c-.41-.2-.92-.03-1.12.38-.2.41-.03.92.38,1.12l3.4,1.67c.42.2.92.03,1.12-.38.2-.41.03-.92-.38-1.12Z"/><path class="cls-1" d="M28.47,5.48c-.21-.41-.71-.58-1.12-.38l-3.4,1.67c-.41.2-.58.71-.38,1.12.2.41.71.58,1.12.38l3.4-1.67c.41-.2.59-.7.38-1.12Z"/></g></svg>