<?xml version="1.0" encoding="UTF-8"?><svg id="Capa_2" xmlns="http://www.w3.org/2000/svg" viewBox="0 0 20.25 26.59"><defs><style>.cls-1{fill:#282828;fill-rule:evenodd;stroke-width:0px;}</style></defs><g id="Capa_1-2"><path class="cls-1" d="M10.13,7.84c-1.29,0-2.34,1.05-2.34,2.34s1.05,2.34,2.34,2.34,2.34-1.05,2.34-2.34-1.05-2.34-2.34-2.34h0ZM10.13,10.96c-.43,0-.78-.35-.78-.78s.35-.78.78-.78.78.35.78.78-.35.78-.78.78Z"/><path class="cls-1" d="M16.69,11.27l-1.13-.65c.02-.28.02-.58,0-.88l1.13-.65c.37-.22.5-.69.29-1.06l-1.56-2.7c-.22-.37-.69-.5-1.07-.28l-1.13.65c-.24-.17-.5-.32-.76-.44v-1.3c0-.43-.35-.78-.78-.78h-3.11c-.43,0-.78.35-.78.78v1.3c-.27.12-.52.27-.76.44l-1.13-.65c-.37-.22-.85-.09-1.06.29l-1.56,2.7c-.22.37-.09.85.29,1.06l1.13.65c-.02.28-.02.58,0,.88l-1.13.65c-.37.21-.5.69-.29,1.06l1.56,2.7c.22.37.69.5,1.06.29l1.13-.65c.24.17.5.32.76.44v1.3c0,.43.35.78.78.78h3.11c.43,0,.78-.35.78-.78v-1.3c.27-.13.52-.27.76-.44l1.13.65c.37.21.85.09,1.07-.29l1.56-2.7c.22-.37.09-.85-.29-1.06h0ZM13.96,9.47c.08.45.09.94,0,1.42-.06.32.09.65.37.82l.91.52-.78,1.35-.9-.52c-.29-.16-.65-.13-.9.08-.36.31-.78.55-1.23.71-.31.11-.52.4-.52.73v1.05h-1.56v-1.05c0-.33-.21-.62-.52-.73-.45-.16-.87-.4-1.23-.71-.25-.21-.61-.25-.89-.08l-.91.52-.78-1.35.91-.52c.29-.17.44-.49.38-.82-.08-.45-.09-.95,0-1.42.06-.33-.09-.65-.38-.82l-.91-.52.78-1.35.91.52c.28.16.64.13.89-.08.37-.31.78-.55,1.23-.71.31-.11.52-.4.52-.73v-1.05h1.56v1.05c0,.33.21.62.52.73.45.16.87.4,1.23.71.25.21.61.25.9.08l.9-.52.78,1.35-.91.52c-.29.16-.44.49-.37.82Z"/><path class="cls-1" d="M10.13,0C4.54,0,0,4.57,0,10.17c-.01,2.95,1.26,5.75,3.51,7.67,1.24,1.06,1.95,2.63,1.95,4.3v2.88c0,.86.7,1.56,1.56,1.56h6.23c.86,0,1.56-.7,1.56-1.56v-2.88c0-1.67.71-3.24,1.94-4.3,2.23-1.93,3.51-4.72,3.51-7.67C20.25,4.57,15.71,0,10.13,0h0ZM13.24,25.03h-6.23c0-3.11.02-3.26-.08-3.95h6.39c-.1.69-.08.83-.08,3.95h0ZM15.72,16.67c-.9.78-1.58,1.76-2,2.86h-7.19c-.42-1.1-1.1-2.08-2.01-2.86-1.89-1.63-2.97-3.99-2.96-6.49C1.56,5.42,5.4,1.56,10.13,1.56s8.57,3.87,8.57,8.62c0,2.49-1.08,4.86-2.97,6.49Z"/></g></svg>