<?xml version="1.0" encoding="UTF-8"?><svg id="Capa_2" xmlns="http://www.w3.org/2000/svg" viewBox="0 0 26.49 26.39"><defs><style>.cls-1,.cls-2{fill:#282828;stroke-width:0px;}.cls-2{fill-rule:evenodd;}</style></defs><g id="Capa_1-2"><path class="cls-2" d="M25.71,20.18h-.83V7.5c0-.71-.58-1.29-1.29-1.29h-3.42v-2.33c0-.29-.17-.56-.43-.69L13.57.08c-.22-.11-.48-.11-.7,0l-6.18,3.1c-.26.13-.43.4-.43.69v2.33h-3.37c-.71,0-1.29.58-1.29,1.29v12.68h-.83c-.43,0-.77.35-.77.78v3.1c0,1.28,1.04,2.33,2.33,2.33h21.83c1.29,0,2.33-1.04,2.33-2.33v-3.1c0-.43-.35-.78-.78-.78h0ZM7.82,4.36l5.4-2.71,5.4,2.71v6.19c0,3.52-2.61,4.64-5.38,6.39-2.8-1.75-5.42-2.86-5.42-6.4v-6.17h0ZM3.15,7.76h3.11v2.77c0,4.62,3.71,6.19,6.57,7.98.25.16.57.16.83,0,2.91-1.83,6.52-3.4,6.52-7.96v-2.78h3.16v12.42h-6.52c-.33,0-.62.21-.73.51l-.33.93h-5.01l-.33-.93c-.11-.31-.4-.51-.73-.51H3.15V7.76h0ZM24.93,24.06c0,.43-.35.78-.78.78H2.33c-.43,0-.78-.35-.78-.78v-2.33h7.58l.33.93c.11.31.4.51.73.51h6.1c.33,0,.62-.21.73-.51l.33-.93h7.57v2.33Z"/><path class="cls-2" d="M13.24,9.31c.43,0,.78-.35.78-.78v-3.1c0-.43-.35-.78-.78-.78s-.78.35-.78.78v3.1c0,.43.35.78.78.78Z"/><circle class="cls-1" cx="13.24" cy="11.67" r=".78"/></g></svg>