<?xml version="1.0" encoding="UTF-8"?><svg id="Capa_2" xmlns="http://www.w3.org/2000/svg" viewBox="0 0 27.24 27.24"><defs><style>.cls-1{fill:#282828;fill-rule:evenodd;stroke-width:0px;}</style></defs><g id="Capa_1-2"><path class="cls-1" d="M25.64,17.75v-.94c0-3.08-2.51-5.59-5.59-5.59-.27,0-.54.02-.8.06V.8c0-.44-.36-.8-.8-.8H.8c-.44,0-.8.36-.8.8v19.21c0,.44.36.8.8.8h12.08v4.04c0,1.32,1.07,2.39,2.39,2.39h9.58c1.32,0,2.39-1.07,2.39-2.39v-4.84c0-1.04-.67-1.93-1.6-2.26h0ZM20.06,12.82c2.2,0,3.99,1.79,3.99,3.99v.8h-1.6v-.8c0-1.32-1.07-2.39-2.39-2.39s-2.39,1.07-2.39,2.39v.8h-1.6v-.8c0-2.2,1.79-3.99,3.99-3.99h0ZM20.86,16.81v.8h-1.6v-.8c0-.44.36-.8.8-.8s.8.36.8.8h0ZM1.6,1.6h16.07v4.84H1.6V1.6h0ZM1.6,8.03h16.07v3.73c-.56.27-1.07.63-1.51,1.06H1.6v-4.79h0ZM13.01,19.21H1.6v-4.79h13.41c-.24.5-.4,1.04-.48,1.6h-.86c-.44,0-.8.36-.8.8s.36.8.8.8h.8v.14c-.68.24-1.22.78-1.46,1.46h0ZM25.64,24.85c0,.44-.36.8-.8.8h-9.58c-.44,0-.8-.36-.8-.8v-4.84c0-.44.36-.8.8-.8h9.58c.44,0,.8.36.8.8v4.84Z"/><path class="cls-1" d="M20.06,20.8c-.44,0-.8.36-.8.8v1.65c0,.44.36.8.8.8s.8-.36.8-.8v-1.65c0-.44-.36-.8-.8-.8Z"/><path class="cls-1" d="M5.59,3.19h-1.6c-.44,0-.8.36-.8.8s.36.8.8.8h1.6c.44,0,.8-.36.8-.8s-.36-.8-.8-.8Z"/><path class="cls-1" d="M10.48,3.19h-1.7c-.44,0-.8.36-.8.8s.36.8.8.8h1.7c.44,0,.8-.36.8-.8s-.36-.8-.8-.8Z"/><path class="cls-1" d="M15.27,3.19h-1.6c-.44,0-.8.36-.8.8s.36.8.8.8h1.6c.44,0,.8-.36.8-.8s-.36-.8-.8-.8Z"/><path class="cls-1" d="M5.59,9.63h-1.6c-.44,0-.8.36-.8.8s.36.8.8.8h1.6c.44,0,.8-.36.8-.8s-.36-.8-.8-.8Z"/><path class="cls-1" d="M10.48,9.63h-1.7c-.44,0-.8.36-.8.8s.36.8.8.8h1.7c.44,0,.8-.36.8-.8s-.36-.8-.8-.8Z"/><path class="cls-1" d="M15.27,9.63h-1.6c-.44,0-.8.36-.8.8s.36.8.8.8h1.6c.44,0,.8-.36.8-.8s-.36-.8-.8-.8Z"/><path class="cls-1" d="M5.59,16.01h-1.6c-.44,0-.8.36-.8.8s.36.8.8.8h1.6c.44,0,.8-.36.8-.8s-.36-.8-.8-.8Z"/><path class="cls-1" d="M10.48,16.01h-1.7c-.44,0-.8.36-.8.8s.36.8.8.8h1.7c.44,0,.8-.36.8-.8s-.36-.8-.8-.8Z"/></g></svg>