<?xml version="1.0" encoding="UTF-8"?>
<svg id="Capa_2" data-name="Capa 2" xmlns="http://www.w3.org/2000/svg" viewBox="0 0 113.92 113.92">
  <defs>
    <style>
      .cls-1 {
        fill: #88bc24;
      }

      .cls-2 {
        fill: #5ead30;
      }

      .cls-3 {
        fill: #fff;
      }
    </style>
  </defs>
  <g id="Capa_1-2" data-name="Capa 1">
    <g>
      <path class="cls-1" d="M56.96,113.92C25.55,113.92,0,88.36,0,56.96S25.55,0,56.96,0s56.96,25.55,56.96,56.96-25.55,56.96-56.96,56.96Z"/>
      <path class="cls-2" d="M87.69,31.55l-51.5,51.5,30.1,30.1c26.73-4.42,47.24-27.51,47.63-55.38l-26.22-26.22Z"/>
      <path class="cls-3" d="M88.83,32.66c-3.29-3.57-6.27-5.97-9.84-2.69l-36.46,33.62-9.21-10.53c-3.19-3.65-6.42-1.58-10.07,1.62-3.65,3.19-6.36,6.3-3.16,9.95l9.51,10.87,7.76,8.88c2.09,2.39,5.74,2.59,8.07.43l8.67-7.99,36.8-33.93c3.57-3.29,1.22-6.67-2.07-10.24Z"/>
    </g>
  </g>
</svg>