<?xml version="1.0" encoding="UTF-8"?>
<svg id="Capa_2" data-name="Capa 2" xmlns="http://www.w3.org/2000/svg" viewBox="0 0 155.71 150.98">
  <defs>
    <style>
      .cls-1 {
        fill: #fff;
        stroke: #fff;
        stroke-miterlimit: 10;
        stroke-width: 2px;
      }
    </style>
  </defs>
  <g id="Capa_1-2" data-name="Capa 1">
    <g>
      <path class="cls-1" d="M76.66,134.66c-2.82,0-5.65-.13-8.45-.38l-37.26-3.38H8.99c-2.18,0-4.29-.9-5.8-2.48-1.52-1.61-2.3-3.71-2.18-5.93.22-4.24,3.87-7.56,8.32-7.56h4.12c8.62,0,15.63-7.01,15.63-15.63v-41.44c0-26.24,21.35-47.59,47.59-47.59s47.59,21.35,47.59,47.59v41.44c0,8.62,7.01,15.63,15.63,15.63h6.5c4.03,0,7.55,2.83,8.2,6.58.41,2.36-.23,4.75-1.75,6.56-1.52,1.81-3.75,2.85-6.12,2.85h-24.53l-37.07,3.37c-2.81.25-5.63.38-8.46.38ZM9.33,119.06c-2.21,0-4.09,1.64-4.19,3.65-.06,1.08.32,2.1,1.06,2.87.74.78,1.73,1.21,2.8,1.21h22.15l37.44,3.38c5.36.49,10.8.49,16.17,0l37.26-3.38h24.71c1.14,0,2.22-.51,2.96-1.39.75-.89,1.05-2.02.84-3.2-.31-1.8-2.09-3.16-4.14-3.16h-6.5c-10.89,0-19.75-8.86-19.75-19.75v-41.44c0-23.97-19.5-43.47-43.46-43.47s-43.47,19.5-43.47,43.47v41.44c0,10.89-8.86,19.75-19.75,19.75h-4.12Z"/>
      <path class="cls-1" d="M76.67,149.98c-9.27,0-16.81-7.54-16.81-16.81,0-1.14.92-2.06,2.06-2.06s2.06.92,2.06,2.06c0,7,5.69,12.69,12.69,12.69s12.69-5.69,12.69-12.69c0-1.14.92-2.06,2.06-2.06s2.06.92,2.06,2.06c0,9.27-7.54,16.81-16.81,16.81Z"/>
      <path class="cls-1" d="M76.67,30.73c-1.14,0-2.06-.92-2.06-2.06V3.06c0-1.14.92-2.06,2.06-2.06s2.06.92,2.06,2.06v25.6c0,1.14-.92,2.06-2.06,2.06Z"/>
    </g>
  </g>
</svg>