<?xml version="1.0" encoding="UTF-8"?>
<svg id="Capa_2" data-name="Capa 2" xmlns="http://www.w3.org/2000/svg" viewBox="0 0 126.9 106.14">
  <defs>
    <style>
      .cls-1 {
        fill: #414142;
      }
    </style>
  </defs>
  <g id="Capa_1-2" data-name="Capa 1">
    <g>
      <g>
        <path class="cls-1" d="M109.69,20.14c-.13,0-.26-.02-.39-.05L63.88,7.2l-45.41,12.88c-.76.22-1.56-.23-1.78-1-.22-.77.23-1.57,1-1.78L63.49,4.32c.26-.07.53-.07.79,0l45.81,13c.77.22,1.21,1.01,1,1.78-.18.64-.76,1.05-1.39,1.05Z"/>
        <path class="cls-1" d="M18.07,20.69c-.33,0-.66-.08-.95-.25-.47-.26-.81-.68-.95-1.2-.15-.51-.08-1.05.18-1.51.26-.46.68-.8,1.19-.94L63.34,3.79c.35-.1.73-.1,1.08,0l45.81,13c.51.14.93.48,1.19.94.26.46.32,1,.18,1.51-.29,1.03-1.46,1.66-2.45,1.37L63.88,7.77l-45.27,12.84c-.18.05-.36.08-.54.08ZM63.88,4.8c-.08,0-.16.01-.25.03l-45.81,13c-.23.07-.43.22-.54.43-.12.21-.15.45-.08.68.07.23.22.43.44.55.21.12.45.14.67.08L63.73,6.68c.1-.03.2-.03.3,0l45.41,12.88c.45.13.98-.15,1.11-.62.06-.23.04-.47-.08-.68-.12-.21-.31-.36-.54-.43l-45.81-13c-.08-.02-.16-.03-.25-.03Z"/>
      </g>
      <g>
        <path class="cls-1" d="M63.88,34.58c-.14,0-.28-.02-.42-.06l-45.81-13.96c-.76-.23-1.19-1.04-.96-1.8.23-.76,1.04-1.19,1.8-.96l45.39,13.83,45.39-13.83c.76-.23,1.57.2,1.8.96.23.76-.2,1.57-.96,1.8l-45.81,13.96c-.14.04-.28.06-.42.06Z"/>
        <path class="cls-1" d="M63.88,35.12c-.19,0-.39-.03-.58-.08l-45.81-13.96c-1.05-.32-1.64-1.43-1.32-2.48.32-1.05,1.43-1.65,2.48-1.32l45.23,13.78,45.23-13.78c1.05-.32,2.16.27,2.48,1.32.32,1.05-.27,2.16-1.32,2.48l-45.81,13.96c-.19.06-.39.09-.58.09ZM18.08,18.28c-.39,0-.75.25-.87.64-.14.47.13.98.6,1.13l45.81,13.96c.17.05.35.05.53,0l45.8-13.96c.48-.15.75-.65.6-1.13-.14-.48-.65-.75-1.13-.6l-45.39,13.83c-.1.03-.21.03-.32,0l-45.39-13.83c-.09-.03-.17-.04-.26-.04Z"/>
      </g>
      <g>
        <path class="cls-1" d="M63.88,105.6c-.16,0-.31-.03-.46-.07l-45.81-15.4c-.59-.2-.98-.75-.98-1.37v-55.97c0-.8.65-1.44,1.44-1.44s1.44.65,1.44,1.44v54.93l44.4,14.93,44.33-12.58v-56.58c0-.8.65-1.44,1.44-1.44s1.44.65,1.44,1.44v57.67c0,.65-.43,1.21-1.05,1.39l-45.81,13c-.13.04-.26.06-.39.06Z"/>
        <path class="cls-1" d="M63.88,106.14c-.21,0-.43-.03-.63-.1l-45.81-15.4c-.81-.27-1.35-1.03-1.35-1.88v-55.97c0-1.09.89-1.99,1.99-1.99s1.99.89,1.99,1.99v54.54l43.87,14.75,43.77-12.42v-56.17c0-1.09.89-1.99,1.99-1.99s1.99.89,1.99,1.99v57.67c0,.88-.59,1.67-1.44,1.91l-45.81,13c-.17.05-.36.08-.54.08ZM18.07,31.88c-.5,0-.9.4-.9.9v55.97c0,.39.25.73.62.86l45.81,15.4c.17.06.36.06.53.01l45.81-13c.39-.11.66-.47.66-.87v-57.67c0-.5-.4-.9-.9-.9s-.9.4-.9.9v56.58c0,.24-.16.46-.39.52l-44.33,12.58c-.1.03-.22.03-.32,0l-44.4-14.93c-.22-.07-.37-.28-.37-.51v-54.93c0-.5-.4-.9-.9-.9Z"/>
      </g>
      <g>
        <path class="cls-1" d="M63.88,105.6c-.8,0-1.44-.65-1.44-1.44V33.14c0-.8.65-1.44,1.44-1.44s1.44.65,1.44,1.44v71.02c0,.8-.65,1.44-1.44,1.44Z"/>
        <path class="cls-1" d="M63.88,106.14c-1.09,0-1.99-.89-1.99-1.99V33.14c0-1.09.89-1.99,1.99-1.99s1.99.89,1.99,1.99v71.02c0,1.09-.89,1.99-1.99,1.99ZM63.88,32.24c-.5,0-.9.4-.9.9v71.02c0,.5.4.9.9.9s.9-.4.9-.9V33.14c0-.5-.4-.9-.9-.9Z"/>
      </g>
      <g>
        <path class="cls-1" d="M19.62,21.09c-.13,0-.27-.02-.4-.06L3.19,16.37c-.62-.18-1.04-.75-1.04-1.4,0-.64.43-1.21,1.06-1.38L49.73.6c.25-.07.52-.07.76,0l13.76,3.72c.77.21,1.23,1,1.02,1.77-.21.77-1.01,1.22-1.77,1.02l-13.38-3.62L8.86,15.01l11.16,3.25c.76.22,1.2,1.02.98,1.79-.18.63-.76,1.04-1.39,1.04Z"/>
        <path class="cls-1" d="M19.62,21.64c-.19,0-.38-.03-.56-.08L3.04,16.89c-.85-.25-1.44-1.04-1.43-1.92,0-.88.6-1.66,1.45-1.9L49.59.07c.34-.09.7-.1,1.05,0l13.77,3.72c1.06.29,1.68,1.38,1.4,2.44-.29,1.05-1.39,1.68-2.43,1.4l-13.24-3.58L10.83,15.02l9.34,2.72c1.05.31,1.66,1.41,1.35,2.46-.25.84-1.03,1.43-1.91,1.43ZM50.12,1.08c-.08,0-.17,0-.25.03L3.35,14.11c-.39.11-.66.46-.66.86,0,.4.26.76.65.87l16.02,4.67c.47.14.98-.15,1.12-.61.14-.48-.14-.98-.61-1.12l-11.16-3.25c-.23-.07-.39-.28-.39-.52,0-.24.16-.45.4-.52L49.98,2.96c.09-.03.19-.03.29,0l13.38,3.62c.48.13.98-.16,1.11-.64.13-.48-.16-.98-.64-1.11l-13.76-3.72c-.08-.02-.15-.03-.23-.03Z"/>
      </g>
      <g>
        <path class="cls-1" d="M108.15,21.09c-.63,0-1.2-.41-1.39-1.04-.22-.77.22-1.57.98-1.79l11.16-3.25L77.64,3.48l-13.38,3.62c-.76.2-1.56-.25-1.77-1.02-.21-.77.25-1.56,1.02-1.77l13.76-3.72c.25-.07.52-.07.76,0l46.52,13c.62.17,1.05.74,1.06,1.38,0,.65-.42,1.21-1.04,1.4l-16.02,4.67c-.14.04-.27.06-.4.06Z"/>
        <path class="cls-1" d="M108.15,21.64c-.88,0-1.66-.59-1.91-1.43-.31-1.05.3-2.16,1.35-2.46l9.34-2.72-39.3-10.98-13.23,3.58c-1.05.29-2.15-.34-2.44-1.4-.28-1.06.34-2.15,1.4-2.44L77.13.07c.34-.09.71-.09,1.05,0l46.52,13c.85.24,1.45,1.02,1.45,1.9,0,.88-.58,1.67-1.43,1.92l-16.02,4.67c-.18.05-.37.08-.56.08ZM77.64,2.94s.1,0,.14.02l41.27,11.53c.23.07.39.28.4.52,0,.24-.16.46-.39.52l-11.16,3.25c-.48.14-.75.64-.61,1.12.13.46.66.75,1.12.61l16.02-4.67c.38-.11.65-.47.65-.87,0-.4-.27-.76-.66-.86L77.89,1.12c-.15-.04-.32-.04-.48,0l-13.76,3.72c-.48.13-.77.63-.64,1.11.13.48.63.76,1.11.64l13.38-3.62s.09-.02.14-.02Z"/>
      </g>
      <g>
        <path class="cls-1" d="M47.55,44.92c-.17,0-.34-.03-.5-.09L1.49,28.1c-.55-.2-.92-.71-.94-1.3-.02-.59.31-1.13.84-1.37l17.65-8.05c.73-.33,1.58-.01,1.91.71.33.73,0,1.58-.72,1.91l-14.45,6.59,41.67,15.3,15.65-8.08c.71-.36,1.58-.09,1.95.62.37.71.09,1.58-.62,1.95l-16.21,8.37c-.21.11-.43.16-.66.16Z"/>
        <path class="cls-1" d="M47.55,45.46c-.23,0-.47-.04-.69-.12L1.3,28.61C.54,28.33.03,27.63,0,26.82c-.03-.81.42-1.55,1.16-1.88l17.65-8.05c.48-.22,1.02-.24,1.52-.06.49.19.89.55,1.11,1.04.45,1,.01,2.18-.98,2.63l-13.25,6.04,40.21,14.77,15.44-7.97c.97-.5,2.17-.12,2.67.85.5.98.12,2.18-.85,2.68l-16.21,8.37c-.28.15-.6.22-.91.22ZM19.63,17.8c-.13,0-.25.03-.37.08L1.61,25.92c-.33.15-.54.49-.53.86.01.37.24.69.59.81l45.57,16.73c.24.09.51.07.73-.04l16.21-8.37c.44-.23.61-.77.39-1.22-.23-.44-.77-.61-1.22-.39l-15.65,8.07c-.13.07-.3.08-.43.03L5.59,27.11c-.21-.07-.35-.27-.36-.49,0-.22.12-.42.32-.51l14.45-6.59c.45-.21.65-.74.45-1.2-.15-.33-.48-.53-.82-.53Z"/>
      </g>
      <g>
        <path class="cls-1" d="M79.34,44.92c-.23,0-.46-.05-.66-.16l-16.21-8.37c-.71-.37-.99-1.24-.62-1.95.37-.71,1.23-.98,1.95-.62l15.65,8.08,41.67-15.3-14.45-6.59c-.72-.33-1.05-1.19-.71-1.91.33-.73,1.19-1.05,1.91-.71l17.65,8.05c.53.24.87.78.84,1.37s-.4,1.1-.94,1.3l-45.57,16.73c-.16.06-.33.09-.5.09Z"/>
        <path class="cls-1" d="M79.34,45.46c-.32,0-.63-.08-.91-.22l-16.21-8.37c-.97-.5-1.36-1.7-.85-2.67.5-.97,1.7-1.35,2.67-.85l15.44,7.97,40.21-14.77-13.25-6.04c-1-.45-1.44-1.63-.98-2.63.46-1,1.63-1.44,2.63-.98l17.65,8.05c.74.34,1.19,1.07,1.16,1.88-.03.81-.54,1.51-1.3,1.79l-45.57,16.73c-.22.08-.45.12-.68.12ZM63.13,34.21c-.33,0-.64.18-.8.49-.23.44-.05.99.39,1.22l16.21,8.37c.22.11.49.13.72.04l45.57-16.73c.34-.13.58-.45.59-.81.01-.37-.19-.7-.53-.86l-17.65-8.05c-.45-.2-.99,0-1.2.45-.2.45,0,.99.45,1.2l14.45,6.59c.2.09.33.29.32.51,0,.22-.15.41-.36.49l-41.67,15.3c-.14.05-.3.04-.43-.03l-15.65-8.08c-.14-.07-.28-.1-.42-.1Z"/>
      </g>
    </g>
  </g>
</svg>