<?xml version="1.0" encoding="UTF-8"?>
<svg id="Capa_2" data-name="Capa 2" xmlns="http://www.w3.org/2000/svg" viewBox="0 0 124.11 122.62">
  <defs>
    <style>
      .cls-1 {
        fill: #414142;
      }
    </style>
  </defs>
  <g id="Capa_1-2" data-name="Capa 1">
    <g>
      <g>
        <path class="cls-1" d="M121.81.63H2.3c-.92,0-1.67.75-1.67,1.67v118.01c0,.92.75,1.67,1.67,1.67h119.5c.92,0,1.67-.75,1.67-1.67V2.3c0-.92-.75-1.67-1.67-1.67ZM120.13,118.64H3.98V28.38h116.16v90.26ZM120.13,25.03H3.98V3.98h116.16v21.06Z"/>
        <path class="cls-1" d="M121.81,122.62H2.3c-1.27,0-2.3-1.03-2.3-2.3V2.3C0,1.03,1.03,0,2.3,0h119.5c1.27,0,2.3,1.03,2.3,2.3v118.01c0,1.27-1.03,2.3-2.3,2.3ZM2.3,1.26c-.58,0-1.05.47-1.05,1.05v118.01c0,.58.47,1.05,1.05,1.05h119.5c.58,0,1.05-.47,1.05-1.05V2.3c0-.58-.47-1.05-1.05-1.05H2.3ZM120.13,119.27H3.98c-.35,0-.63-.28-.63-.63V28.38c0-.35.28-.63.63-.63h116.16c.35,0,.63.28.63.63v90.26c0,.35-.28.63-.63.63ZM4.6,118.01h114.9V29.01H4.6v89ZM120.13,25.66H3.98c-.35,0-.63-.28-.63-.63V3.98c0-.35.28-.63.63-.63h116.16c.35,0,.63.28.63.63v21.06c0,.35-.28.63-.63.63ZM4.6,24.4h114.9V4.6H4.6v19.8Z"/>
      </g>
      <g>
        <path class="cls-1" d="M14,20.17c3.04,0,5.5-2.47,5.5-5.5s-2.47-5.5-5.5-5.5-5.5,2.47-5.5,5.5,2.47,5.5,5.5,5.5ZM14,12.51c1.19,0,2.16.96,2.16,2.16s-.97,2.16-2.16,2.16-2.16-.96-2.16-2.16.97-2.16,2.16-2.16Z"/>
        <path class="cls-1" d="M14,20.79c-3.38,0-6.13-2.75-6.13-6.13s2.75-6.13,6.13-6.13,6.13,2.75,6.13,6.13-2.75,6.13-6.13,6.13ZM14,9.79c-2.69,0-4.88,2.19-4.88,4.88s2.19,4.88,4.88,4.88,4.88-2.19,4.88-4.88-2.19-4.88-4.88-4.88ZM14,17.45c-1.53,0-2.78-1.25-2.78-2.78s1.25-2.78,2.78-2.78,2.78,1.25,2.78,2.78-1.25,2.78-2.78,2.78ZM14,13.13c-.84,0-1.53.68-1.53,1.53s.69,1.53,1.53,1.53,1.53-.68,1.53-1.53-.68-1.53-1.53-1.53Z"/>
      </g>
      <g>
        <path class="cls-1" d="M27.91,20.17c3.04,0,5.5-2.47,5.5-5.5s-2.47-5.5-5.5-5.5-5.5,2.47-5.5,5.5,2.47,5.5,5.5,5.5ZM27.91,12.51c1.19,0,2.16.96,2.16,2.16s-.97,2.16-2.16,2.16-2.16-.96-2.16-2.16.96-2.16,2.16-2.16Z"/>
        <path class="cls-1" d="M27.91,20.79c-3.38,0-6.13-2.75-6.13-6.13s2.75-6.13,6.13-6.13,6.13,2.75,6.13,6.13-2.75,6.13-6.13,6.13ZM27.91,9.79c-2.69,0-4.88,2.19-4.88,4.88s2.19,4.88,4.88,4.88,4.88-2.19,4.88-4.88-2.19-4.88-4.88-4.88ZM27.91,17.45c-1.53,0-2.78-1.25-2.78-2.78s1.25-2.78,2.78-2.78,2.78,1.25,2.78,2.78-1.25,2.78-2.78,2.78ZM27.91,13.13c-.84,0-1.53.68-1.53,1.53s.68,1.53,1.53,1.53,1.53-.68,1.53-1.53-.68-1.53-1.53-1.53Z"/>
      </g>
      <g>
        <path class="cls-1" d="M41.83,20.17c3.03,0,5.5-2.47,5.5-5.5s-2.47-5.5-5.5-5.5-5.5,2.47-5.5,5.5,2.47,5.5,5.5,5.5ZM41.83,12.51c1.19,0,2.16.96,2.16,2.16s-.97,2.16-2.16,2.16-2.16-.96-2.16-2.16.97-2.16,2.16-2.16Z"/>
        <path class="cls-1" d="M41.83,20.79c-3.38,0-6.13-2.75-6.13-6.13s2.75-6.13,6.13-6.13,6.13,2.75,6.13,6.13-2.75,6.13-6.13,6.13ZM41.83,9.79c-2.69,0-4.88,2.19-4.88,4.88s2.19,4.88,4.88,4.88,4.88-2.19,4.88-4.88-2.19-4.88-4.88-4.88ZM41.83,17.45c-1.53,0-2.78-1.25-2.78-2.78s1.25-2.78,2.78-2.78,2.78,1.25,2.78,2.78-1.25,2.78-2.78,2.78ZM41.83,13.13c-.84,0-1.53.68-1.53,1.53s.68,1.53,1.53,1.53,1.53-.68,1.53-1.53-.68-1.53-1.53-1.53Z"/>
      </g>
      <g>
        <path class="cls-1" d="M46.72,92.87c.32.31.74.47,1.16.47s.84-.16,1.17-.47l44.08-42.97c.66-.65.68-1.71.03-2.37-.65-.66-1.7-.68-2.37-.03l-42.92,41.84-13.9-13.38c-.67-.64-1.73-.62-2.37.04-.64.67-.62,1.73.04,2.37l15.07,14.51Z"/>
        <path class="cls-1" d="M47.88,93.96c-.6,0-1.17-.23-1.6-.65l-15.07-14.51c-.44-.43-.69-1-.7-1.62-.01-.61.22-1.2.64-1.64.88-.92,2.34-.94,3.26-.06l13.46,12.96,42.49-41.41c.91-.89,2.37-.87,3.26.04.88.91.86,2.37-.04,3.26l-44.08,42.97c-.43.42-1,.65-1.61.65ZM32.82,76.11c-.27,0-.55.11-.75.32-.19.2-.3.47-.29.75,0,.28.12.54.32.73l15.07,14.51h0c.4.38,1.06.38,1.46,0l44.08-42.97c.41-.4.42-1.07.02-1.48-.4-.42-1.07-.42-1.48-.02l-42.92,41.84c-.24.24-.63.24-.87,0l-13.9-13.38c-.2-.2-.47-.29-.73-.29Z"/>
      </g>
    </g>
  </g>
</svg>