<?xml version="1.0" encoding="UTF-8"?>
<svg id="Capa_2" data-name="Capa 2" xmlns="http://www.w3.org/2000/svg" viewBox="0 0 119.91 147.03">
  <defs>
    <style>
      .cls-1 {
        fill: #414142;
      }
    </style>
  </defs>
  <g id="Capa_1-2" data-name="Capa 1">
    <g>
      <g>
        <path class="cls-1" d="M.94,3.43v140.17c0,1.38,1.12,2.5,2.5,2.5h81.54c.33,0,.65-.07.95-.19.15-.06.28-.18.41-.27.12-.08.26-.14.37-.24l.03-.03h0s31.48-30.35,31.48-30.35c.49-.47.76-1.12.76-1.8V3.43c0-1.38-1.12-2.5-2.5-2.5H3.43C2.05.94.94,2.05.94,3.43ZM87.47,137.73v-22.01h22.83l-22.83,22.01ZM5.93,5.93h108.06v104.8h-29.01c-1.38,0-2.5,1.12-2.5,2.5v27.88H5.93V5.93Z"/>
        <path class="cls-1" d="M84.97,147.03H3.43c-1.89,0-3.43-1.54-3.43-3.43V3.43C0,1.54,1.54,0,3.43,0h113.05c1.89,0,3.43,1.54,3.43,3.43v109.79c0,.93-.38,1.83-1.05,2.47l-31.47,30.34c-.19.18-.35.28-.46.34-.28.19-.44.31-.65.4-.41.17-.85.26-1.3.26ZM85.82,144.86l.65.7-.38-.86,31.48-30.35c.31-.3.48-.7.48-1.12V3.43c0-.86-.7-1.56-1.56-1.56H3.43c-.86,0-1.56.7-1.56,1.56v140.17c0,.86.7,1.56,1.56,1.56h81.54c.2,0,.4-.04.59-.12.01,0,.24-.18.26-.18ZM82.48,142.04H5.93c-.52,0-.94-.42-.94-.94V5.93c0-.52.42-.94.94-.94h108.06c.52,0,.94.42.94.94v104.8c0,.52-.42.94-.94.94h-29.01c-.86,0-1.56.7-1.56,1.56v27.88c0,.52-.42.94-.94.94ZM6.86,140.17h74.68v-26.95c0-1.89,1.54-3.43,3.43-3.43h28.08V6.86H6.86v133.3ZM87.47,138.66c-.12,0-.25-.02-.37-.08-.35-.15-.57-.49-.57-.86v-22.01c0-.52.42-.94.94-.94h22.83c.38,0,.72.23.87.58s.06.76-.22,1.02l-22.83,22.01c-.18.17-.41.26-.65.26ZM88.41,116.65v18.87l19.57-18.87h-19.57Z"/>
      </g>
      <g>
        <path class="cls-1" d="M84.22,57.8c0-1.38-1.12-2.5-2.5-2.5h-20.9v-19.55c0-1.38-1.12-2.5-2.5-2.5s-2.5,1.12-2.5,2.5v19.55h-20.9c-1.38,0-2.5,1.12-2.5,2.5s1.12,2.5,2.5,2.5h20.9v21.69c0,1.38,1.12,2.5,2.5,2.5s2.5-1.12,2.5-2.5v-21.69h20.9c1.38,0,2.5-1.12,2.5-2.5Z"/>
        <path class="cls-1" d="M58.33,85.42c-1.89,0-3.43-1.54-3.43-3.43v-20.76h-19.97c-1.89,0-3.43-1.54-3.43-3.43s1.54-3.43,3.43-3.43h19.97v-18.62c0-1.89,1.54-3.43,3.43-3.43s3.43,1.54,3.43,3.43v18.62h19.97c1.89,0,3.43,1.54,3.43,3.43s-1.54,3.43-3.43,3.43h-19.97v20.76c0,1.89-1.54,3.43-3.43,3.43ZM34.93,56.24c-.86,0-1.56.7-1.56,1.56s.7,1.56,1.56,1.56h20.9c.52,0,.94.42.94.94v21.69c0,.86.7,1.56,1.56,1.56s1.56-.7,1.56-1.56v-21.69c0-.52.42-.94.94-.94h20.9c.86,0,1.56-.7,1.56-1.56s-.7-1.56-1.56-1.56h-20.9c-.52,0-.94-.42-.94-.94v-19.55c0-.86-.7-1.56-1.56-1.56s-1.56.7-1.56,1.56v19.55c0,.52-.42.94-.94.94h-20.9Z"/>
      </g>
    </g>
  </g>
</svg>