<?xml version="1.0" encoding="UTF-8"?>
<svg id="Capa_2" data-name="Capa 2" xmlns="http://www.w3.org/2000/svg" viewBox="0 0 117.82 117.82">
  <defs>
    <style>
      .cls-1 {
        fill: #fff;
      }

      .cls-2 {
        fill: #cc1b36;
      }

      .cls-3 {
        fill: #e73f3f;
      }
    </style>
  </defs>
  <g id="Capa_1-2" data-name="Capa 1">
    <g>
      <path class="cls-3" d="M58.91,117.82C26.43,117.82,0,91.39,0,58.91S26.43,0,58.91,0s58.91,26.43,58.91,58.91-26.43,58.91-58.91,58.91Z"/>
      <path class="cls-2" d="M117.8,60.12l-29.62-29.31-57.74,59.83,26.79,27.16c.56.02,1.12.02,1.68.02,32.08,0,58.25-25.77,58.9-57.7Z"/>
      <g>
        <path class="cls-1" d="M89.56,31.88c-3.31-3.59-6.31-6.01-9.89-2.7l-53.62,49.43c-3.59,3.31-1.35,6.46,1.96,10.05h0c3.31,3.59,6.43,6.25,10.02,2.94l53.62-49.43c3.59-3.31,1.22-6.7-2.08-10.29Z"/>
        <path class="cls-1" d="M28.1,31.88c3.31-3.59,6.31-6.01,9.89-2.7l53.62,49.43c3.59,3.31,1.35,6.46-1.96,10.05h0c-3.31,3.59-6.43,6.25-10.02,2.94L26.02,42.17c-3.59-3.31-1.22-6.7,2.08-10.29Z"/>
      </g>
    </g>
  </g>
</svg>