<?xml version="1.0" encoding="UTF-8"?>
<svg id="Capa_2" data-name="Capa 2" xmlns="http://www.w3.org/2000/svg" viewBox="0 0 99.02 120.14">
  <defs>
    <style>
      .cls-1 {
        fill: #414142;
      }
    </style>
  </defs>
  <g id="Capa_1-2" data-name="Capa 1">
    <g>
      <path class="cls-1" d="M76.72,120.14H1.66c-.92,0-1.66-.74-1.66-1.66V25.42c0-.92.74-1.66,1.66-1.66h54.14c.43,0,.84.17,1.15.46l20.92,20.17c.32.31.51.74.51,1.19v72.9c0,.92-.74,1.66-1.66,1.66ZM3.31,116.83h71.75V46.29l-19.93-19.22H3.31v89.75Z"/>
      <path class="cls-1" d="M97.37,96.38h-20.64c-.92,0-1.66-.74-1.66-1.66s.74-1.66,1.66-1.66h18.99V21.83c0-.92.74-1.66,1.66-1.66s1.66.74,1.66,1.66v72.9c0,.92-.74,1.66-1.66,1.66Z"/>
      <path class="cls-1" d="M22.3,27.07c-.92,0-1.66-.74-1.66-1.66V1.66c0-.92.74-1.66,1.66-1.66h55.63c.92,0,1.66.74,1.66,1.66s-.74,1.66-1.66,1.66H23.96v22.1c0,.92-.74,1.66-1.66,1.66Z"/>
      <path class="cls-1" d="M75.23,47.24h-19.43c-.92,0-1.66-.74-1.66-1.66v-20.17c0-.92.74-1.66,1.66-1.66s1.66.74,1.66,1.66v18.51h17.78c.92,0,1.66.74,1.66,1.66s-.74,1.66-1.66,1.66Z"/>
      <path class="cls-1" d="M97.37,23.49h-19.43c-.92,0-1.66-.74-1.66-1.66V1.66c0-.68.41-1.28,1.04-1.54.63-.25,1.35-.1,1.81.39l19.43,20.17c.46.48.59,1.19.33,1.8-.26.61-.86,1.01-1.52,1.01ZM79.59,20.17h13.88l-13.88-14.4v14.4Z"/>
    </g>
  </g>
</svg>