<?xml version="1.0" encoding="UTF-8"?>
<svg id="Capa_2" data-name="Capa 2" xmlns="http://www.w3.org/2000/svg" viewBox="0 0 130.35 126">
  <defs>
    <style>
      .cls-1 {
        fill: none;
        stroke: #C2AFF0;
        stroke-miterlimit: 20;
        stroke-width: 60px;
      }
    </style>
  </defs>
  <g id="Capa_1-2" data-name="Capa 1">
    <g>
      <path class="cls-1" d="M127.17,66.84c-.43,0-.86-.16-1.19-.49L65.18,5.54,4.37,66.35c-.66.66-1.72.66-2.38,0-.66-.66-.66-1.72,0-2.38L63.99,1.97c.63-.63,1.75-.63,2.38,0l61.99,61.99c.66.66.66,1.72,0,2.38-.33.33-.76.49-1.19.49Z"/>
      <path class="cls-1" d="M110.52,124.5h-29.91c-.93,0-1.68-.75-1.68-1.68v-42.92h-27.49v42.92c0,.93-.75,1.68-1.68,1.68h-29.91c-.93,0-1.68-.75-1.68-1.68V49.95c0-.93.75-1.68,1.68-1.68s1.68.75,1.68,1.68v71.18h26.55v-42.92c0-.93.75-1.68,1.68-1.68h30.86c.93,0,1.68.75,1.68,1.68v42.92h26.55V49.95c0-.93.75-1.68,1.68-1.68s1.68.75,1.68,1.68v72.87c0,.93-.75,1.68-1.68,1.68Z"/>
    </g>
  </g>
</svg>