<?xml version="1.0" encoding="UTF-8"?>
<svg id="Capa_2" data-name="Capa 2" xmlns="http://www.w3.org/2000/svg" xmlns:xlink="http://www.w3.org/1999/xlink" viewBox="0 0 111.64 134.76">
  <defs>
    <style>
      .cls-1, .cls-2, .cls-3 {
        fill: #fff;
      }

      .cls-2 {
        fill-rule: evenodd;
      }

      .cls-4 {
        clip-path: url(#clippath-1);
      }

      .cls-3 {
        clip-rule: evenodd;
      }

      .cls-5 {
        clip-path: url(#clippath-2);
      }

      .cls-6 {
        clip-path: url(#clippath);
      }
    </style>
    <clipPath id="clippath">
      <polygon class="cls-3" points="69.32 0 111.64 0 111.64 42.32 90.8 42.32 90.8 20.84 69.32 20.84 69.32 0"/>
    </clipPath>
    <clipPath id="clippath-1">
      <path class="cls-3" d="M70.78,70.78c-8.26,8.26-21.65,8.26-29.92,0-8.26-8.26-8.26-21.65,0-29.92,8.26-8.26,21.65-8.26,29.92,0,8.26,8.26,8.26,21.65,0,29.92"/>
    </clipPath>
    <clipPath id="clippath-2">
      <path class="cls-3" d="M80.56,80.56c-13.67,13.67-35.81,13.67-49.47,0-13.67-13.67-13.67-35.81,0-49.47,6.6-6.6,15.41-10.25,24.74-10.25V0c-14.29,0-28.57,5.45-39.47,16.35-21.8,21.8-21.8,57.14,0,78.94l39.47,39.47,39.47-39.47c10.9-10.9,16.35-25.19,16.35-39.47h-20.84c0,9.33-3.65,18.14-10.25,24.74"/>
    </clipPath>
  </defs>
  <g id="Capa_1-2" data-name="Capa 1">
    <g>
      <g>
        <polygon class="cls-2" points="69.32 0 111.64 0 111.64 42.32 90.8 42.32 90.8 20.84 69.32 20.84 69.32 0"/>
        <g class="cls-6">
          <rect class="cls-1" x="69.32" width="42.32" height="42.32"/>
        </g>
      </g>
      <g>
        <path class="cls-2" d="M70.78,70.78c-8.26,8.26-21.65,8.26-29.92,0-8.26-8.26-8.26-21.65,0-29.92,8.26-8.26,21.65-8.26,29.92,0,8.26,8.26,8.26,21.65,0,29.92"/>
        <g class="cls-4">
          <rect class="cls-1" x="32.6" y="32.6" width="46.44" height="46.44"/>
        </g>
      </g>
      <g>
        <path class="cls-2" d="M80.56,80.56c-13.67,13.67-35.81,13.67-49.47,0-13.67-13.67-13.67-35.81,0-49.47,6.6-6.6,15.41-10.25,24.74-10.25V0c-14.29,0-28.57,5.45-39.47,16.35-21.8,21.8-21.8,57.14,0,78.94l39.47,39.47,39.47-39.47c10.9-10.9,16.35-25.19,16.35-39.47h-20.84c0,9.33-3.65,18.14-10.25,24.74"/>
        <g class="cls-5">
          <rect class="cls-1" x="-5.45" width="117.09" height="134.76"/>
        </g>
      </g>
    </g>
  </g>
</svg>