<?xml version="1.0" encoding="UTF-8"?>
<svg id="Capa_2" data-name="Capa 2" xmlns="http://www.w3.org/2000/svg" viewBox="0 0 126.5 123.41">
  <defs>
    <style>
      .cls-1 {
        fill: #faf9f7;
        stroke: #fcfcfa;
        stroke-miterlimit: 10;
        stroke-width: 3px;
      }
    </style>
  </defs>
  <g id="Capa_1-2" data-name="Capa 1">
    <g>
      <path class="cls-1" d="M29.29,121.91c-.23,0-.46-.05-.68-.14-.61-.27-1-.87-1-1.54v-22.66H3.18c-.93,0-1.68-.75-1.68-1.68V14.66c0-.93.75-1.68,1.68-1.68h105.36c.93,0,1.68.75,1.68,1.68v81.23c0,.93-.75,1.68-1.68,1.68h-52.03l-26.08,23.9c-.32.29-.72.44-1.13.44ZM4.86,94.21h24.44c.93,0,1.68.75,1.68,1.68v20.53l23.75-21.77c.31-.28.72-.44,1.13-.44h51V16.34H4.86v77.87Z"/>
      <path class="cls-1" d="M123.32,88.9h-14.78c-.93,0-1.68-.75-1.68-1.68s.75-1.68,1.68-1.68h13.1V4.86H19.64v9.8c0,.93-.75,1.68-1.68,1.68s-1.68-.75-1.68-1.68V3.18c0-.93.75-1.68,1.68-1.68h105.36c.93,0,1.68.75,1.68,1.68v84.04c0,.93-.75,1.68-1.68,1.68Z"/>
      <path class="cls-1" d="M97.21,113.24c-.41,0-.82-.15-1.13-.44l-17.11-15.68c-.68-.63-.73-1.69-.1-2.37.63-.68,1.69-.73,2.37-.1l14.29,13.1v-11.86c0-.93.75-1.68,1.68-1.68s1.68.75,1.68,1.68v15.67c0,.67-.39,1.27-1,1.54-.22.1-.45.14-.68.14Z"/>
      <path class="cls-1" d="M93.01,39.09H17.96c-.93,0-1.68-.75-1.68-1.68s.75-1.68,1.68-1.68h75.05c.93,0,1.68.75,1.68,1.68s-.75,1.68-1.68,1.68Z"/>
      <path class="cls-1" d="M93.01,54.1H17.96c-.93,0-1.68-.75-1.68-1.68s.75-1.68,1.68-1.68h75.05c.93,0,1.68.75,1.68,1.68s-.75,1.68-1.68,1.68Z"/>
      <path class="cls-1" d="M47.95,69.12h-29.99c-.93,0-1.68-.75-1.68-1.68s.75-1.68,1.68-1.68h29.99c.93,0,1.68.75,1.68,1.68s-.75,1.68-1.68,1.68Z"/>
    </g>
  </g>
</svg>