<svg xmlns="http://www.w3.org/2000/svg" width="49" height="49" viewBox="0 0 49 49" version="1.1"><path d="M 0 24.517 L 0 49.035 24.750 48.767 L 49.500 48.500 49.768 24.250 L 50.036 0 25.018 0 L 0 0 0 24.517 M 0.432 25 C 0.432 38.475, 0.574 43.987, 0.747 37.250 C 0.920 30.512, 0.920 19.487, 0.747 12.750 C 0.574 6.012, 0.432 11.525, 0.432 25 M 18.047 5.246 C 6.589 9.093, 1.596 24.681, 8.476 35.127 C 12.328 40.975, 17.335 43.485, 25.160 43.493 C 30.952 43.499, 32.376 43.109, 36.083 40.500 C 42.338 36.098, 45.301 29.993, 44.684 22.775 C 43.783 12.241, 36.948 5.227, 26.859 4.483 C 23.911 4.265, 19.946 4.609, 18.047 5.246 M 14 24 C 14 25.879, 14.667 26, 25 26 C 35.333 26, 36 25.879, 36 24 C 36 22.121, 35.333 22, 25 22 C 14.667 22, 14 22.121, 14 24" stroke="none" fill="#f4f4f4" fill-rule="evenodd"/><path d="M 18.047 5.246 C 6.589 9.093, 1.596 24.681, 8.476 35.127 C 12.328 40.975, 17.335 43.485, 25.160 43.493 C 30.952 43.499, 32.376 43.109, 36.083 40.500 C 42.338 36.098, 45.301 29.993, 44.684 22.775 C 43.783 12.241, 36.948 5.227, 26.859 4.483 C 23.911 4.265, 19.946 4.609, 18.047 5.246 M 14 24 C 14 25.879, 14.667 26, 25 26 C 35.333 26, 36 25.879, 36 24 C 36 22.121, 35.333 22, 25 22 C 14.667 22, 14 22.121, 14 24" stroke="none" fill="#ed3b48" fill-rule="evenodd"/></svg>