<?xml version="1.0" encoding="UTF-8"?>
<svg id="Capa_2" data-name="Capa 2" xmlns="http://www.w3.org/2000/svg" viewBox="0 0 140.77 136.44">
  <defs>
    <style>
      .cls-1 {
        fill: #616160;
      }
    </style>
  </defs>
  <g id="Capa_1-2" data-name="Capa 1">
    <g>
      <path class="cls-1" d="M69.3,122.41c-2.59,0-5.17-.12-7.74-.35l-34.12-3.09H7.32c-2,0-3.93-.82-5.31-2.27-1.39-1.47-2.1-3.4-2-5.43.2-3.88,3.55-6.93,7.62-6.93h3.78c7.89,0,14.31-6.42,14.31-14.31v-37.95c0-24.03,19.55-43.58,43.59-43.58s43.58,19.55,43.58,43.58v37.95c0,7.89,6.42,14.31,14.31,14.31h5.96c3.69,0,6.92,2.59,7.51,6.02.37,2.16-.21,4.35-1.6,6-1.4,1.66-3.44,2.61-5.6,2.61h-22.46l-33.95,3.08c-2.57.23-5.16.35-7.74.35ZM7.63,108.12c-2.02,0-3.75,1.5-3.84,3.35-.05.99.29,1.92.97,2.63.68.71,1.59,1.1,2.57,1.1h20.28l34.29,3.1c4.91.45,9.89.45,14.81,0l34.12-3.09h22.63c1.05,0,2.04-.47,2.71-1.27.68-.81.96-1.85.77-2.93-.29-1.65-1.91-2.89-3.79-2.89h-5.96c-9.97,0-18.09-8.11-18.09-18.09v-37.95c0-21.95-17.86-39.81-39.81-39.81S29.49,30.13,29.49,52.08v37.95c0,9.97-8.11,18.09-18.09,18.09h-3.78Z"/>
      <path class="cls-1" d="M69.3,136.44c-8.49,0-15.4-6.91-15.4-15.4,0-1.04.84-1.89,1.89-1.89s1.89.85,1.89,1.89c0,6.41,5.21,11.62,11.62,11.62s11.62-5.21,11.62-11.62c0-1.04.84-1.89,1.89-1.89s1.89.85,1.89,1.89c0,8.49-6.91,15.4-15.4,15.4Z"/>
      <path class="cls-1" d="M69.3,27.23c-1.04,0-1.89-.85-1.89-1.89V1.89c0-1.04.84-1.89,1.89-1.89s1.89.85,1.89,1.89v23.45c0,1.04-.84,1.89-1.89,1.89Z"/>
    </g>
  </g>
</svg>