<?xml version="1.0" encoding="UTF-8"?>
<svg id="Capa_2" data-name="Capa 2" xmlns="http://www.w3.org/2000/svg" viewBox="0 0 117.35 117.35">
  <defs>
    <style>
      .cls-1 {
        fill: #414142;
        stroke: #414142;
        stroke-miterlimit: 10;
        stroke-width: 3px;
      }
    </style>
  </defs>
  <g id="Capa_1-2" data-name="Capa 1">
    <g>
      <path class="cls-1" d="M58.68,115.85C27.15,115.85,1.5,90.2,1.5,58.68S27.15,1.5,58.68,1.5s57.18,25.65,57.18,57.18-25.65,57.18-57.18,57.18ZM58.68,4.6C28.86,4.6,4.6,28.86,4.6,58.68s24.26,54.07,54.07,54.07,54.07-24.26,54.07-54.07S88.49,4.6,58.68,4.6Z"/>
      <path class="cls-1" d="M58.68,93.34c-.86,0-1.55-.69-1.55-1.55V26.34c0-.86.69-1.55,1.55-1.55s1.55.7,1.55,1.55v65.46c0,.86-.69,1.55-1.55,1.55Z"/>
      <path class="cls-1" d="M91.41,60.62H25.95c-.86,0-1.55-.69-1.55-1.55s.69-1.55,1.55-1.55h65.46c.86,0,1.55.7,1.55,1.55s-.69,1.55-1.55,1.55Z"/>
    </g>
  </g>
</svg>