<?xml version="1.0" encoding="UTF-8"?>
<svg id="Capa_2" data-name="Capa 2" xmlns="http://www.w3.org/2000/svg" viewBox="0 0 134.52 134.52">
  <defs>
    <style>
      .cls-1 {
        fill: none;
        stroke: #414142;
        stroke-miterlimit: 10;
        stroke-width: 4px;
      }
    </style>
  </defs>
  <g id="Capa_1-2" data-name="Capa 1">
    <g>
      <path class="cls-1" d="M25.94,39.37h-8.07c-9.06-1.43-15.87-9.35-15.87-18.57,0-5.18,2.11-9.88,5.52-13.28,3.41-3.41,8.11-5.52,13.28-5.52h92.92c5.18,0,9.88,2.11,13.28,5.52,3.41,3.41,5.52,8.11,5.52,13.28,0,9.23-6.81,17.14-15.87,18.57h-8.07"/>
      <path class="cls-1" d="M25.94,26.68l-6.93-.02c-2.56-.79-4.34-3.14-4.34-5.85,0-1.68.69-3.21,1.8-4.32s2.64-1.8,4.32-1.8h92.92c1.68,0,3.21.69,4.32,1.8,1.11,1.11,1.8,2.64,1.8,4.32,0,2.71-1.78,5.06-4.34,5.85l-6.93.02"/>
      <path class="cls-1" d="M67.26,131.61c.89,0,1.77-.34,2.44-1.01l4.11-4.11c1.35-1.35,3.6-1.4,4.89,0l4.53,4.9c1.29,1.4,3.55,1.36,4.89,0l4.82-4.9c1.33-1.36,3.36-1.14,4.89,0l6.96,5.18c1.51,1.51,3.79.94,3.79-1.25V26.68c0-3.12-2.56-5.68-5.68-5.68H31.62c-3.12,0-5.68,2.56-5.68,5.68v103.75c0,2.18,2.28,2.76,3.79,1.25l6.96-5.18c1.53-1.14,3.55-1.36,4.89,0l4.82,4.9c1.33,1.36,3.6,1.4,4.89,0l4.53-4.9c1.29-1.4,3.54-1.35,4.89,0l4.11,4.11c.67.67,1.56,1.01,2.44,1.01h0Z"/>
      <path class="cls-1" d="M49.64,79.65v5.35M57.03,91.86c-1.28-8.7-14.57-8.9-14.79-1-.28,10.02,15.2,3.97,14.28,13.37-.8,8.19-14.03,6.35-14.14-.95M49.64,109.57v5.92"/>
      <path class="cls-1" d="M39.56,38.25h36.21M82.61,38.25h12.36M39.56,51.41h36.21M82.61,51.41h12.36M39.56,64.57h36.21M82.61,64.57h12.36M73.05,77.33h21.91"/>
    </g>
  </g>
</svg>