<?xml version="1.0" encoding="UTF-8"?>
<svg id="Capa_2" data-name="Capa 2" xmlns="http://www.w3.org/2000/svg" viewBox="0 0 101.49 116.06">
  <defs>
    <style>
      .cls-1 {
        fill: #414142;
        stroke: #414142;
        stroke-miterlimit: 10;
        stroke-width: 2px;
      }
    </style>
  </defs>
  <g id="Capa_1-2" data-name="Capa 1">
    <g>
      <g>
        <path class="cls-1" d="M44.42,87.27C20.8,87.27,1.57,68.05,1.57,44.42S20.8,1.57,44.42,1.57s42.85,19.22,42.85,42.85-19.22,42.85-42.85,42.85ZM44.42,4.64C22.49,4.64,4.64,22.49,4.64,44.42s17.85,39.78,39.78,39.78,39.78-17.85,39.78-39.78S66.36,4.64,44.42,4.64Z"/>
        <path class="cls-1" d="M44.42,87.85C20.48,87.85,1,68.37,1,44.42S20.48,1,44.42,1s43.42,19.48,43.42,43.42-19.48,43.42-43.42,43.42ZM44.42,2.15C21.11,2.15,2.15,21.11,2.15,44.42s18.96,42.28,42.27,42.28,42.28-18.97,42.28-42.28S67.73,2.15,44.42,2.15ZM44.42,84.78c-22.25,0-40.36-18.11-40.36-40.36S22.17,4.07,44.42,4.07s40.36,18.11,40.36,40.36-18.11,40.36-40.36,40.36ZM44.42,5.22C22.8,5.22,5.22,22.8,5.22,44.42s17.59,39.21,39.21,39.21,39.21-17.59,39.21-39.21S66.04,5.22,44.42,5.22Z"/>
      </g>
      <g>
        <path class="cls-1" d="M98.39,114.49c-.43,0-.86-.18-1.17-.54l-29.8-35.03c-.55-.65-.47-1.61.17-2.16.65-.55,1.61-.47,2.16.17l29.8,35.03c.55.65.47,1.61-.17,2.16-.29.25-.64.37-.99.37Z"/>
        <path class="cls-1" d="M98.39,115.06c-.62,0-1.2-.27-1.6-.74l-29.8-35.03c-.75-.88-.65-2.22.24-2.97.89-.75,2.22-.64,2.97.24l29.8,35.03c.75.89.65,2.22-.24,2.97-.38.33-.87.5-1.37.5ZM68.59,76.97c-.22,0-.44.07-.62.23-.4.34-.45.95-.11,1.35l29.8,35.03c.33.39.96.44,1.35.11.4-.34.45-.95.11-1.35l-29.8-35.03c-.19-.22-.46-.34-.73-.34Z"/>
      </g>
    </g>
  </g>
</svg>