<?xml version="1.0" encoding="UTF-8"?>
<svg id="Capa_2" data-name="Capa 2" xmlns="http://www.w3.org/2000/svg" viewBox="0 0 140.69 140.69">
  <defs>
    <style>
      .cls-1 {
        fill: #fff;
        stroke: #fff;
        stroke-miterlimit: 10;
        stroke-width: 2px;
      }
    </style>
  </defs>
  <g id="Capa_1-2" data-name="Capa 1">
    <g>
      <path class="cls-1" d="M77.74,139.69h-14.79c-2.87,0-5.2-2.33-5.2-5.2v-6.3c0-3.01-1.93-5.69-4.81-6.67-2.25-.77-4.47-1.7-6.6-2.76-2.63-1.31-5.79-.81-7.85,1.25l-4.6,4.61c-1.97,1.96-5.39,1.96-7.35,0l-10.46-10.46c-2.03-2.03-2.03-5.32,0-7.35l4.66-4.66c2.05-2.05,2.56-5.2,1.26-7.82-1.05-2.13-1.97-4.36-2.73-6.6-.96-2.86-3.62-4.78-6.6-4.78h-6.48c-2.86,0-5.19-2.33-5.19-5.2v-14.79c0-2.86,2.33-5.2,5.19-5.2h6.6c2.97,0,5.61-1.9,6.59-4.74.76-2.21,1.67-4.39,2.72-6.49,1.32-2.64.82-5.8-1.24-7.86l-4.78-4.78c-.98-.98-1.52-2.28-1.52-3.67s.54-2.69,1.52-3.67l10.46-10.46c1.96-1.96,5.38-1.96,7.35,0l4.84,4.84c2.05,2.05,5.2,2.56,7.83,1.26,2.1-1.04,4.29-1.94,6.5-2.69,2.81-.95,4.7-3.57,4.7-6.51v-6.78c0-2.86,2.33-5.19,5.2-5.19h14.79c2.87,0,5.2,2.33,5.2,5.19v6.78c0,2.94,1.89,5.56,4.7,6.51,2.21.75,4.39,1.66,6.49,2.69,2.63,1.3,5.78.79,7.83-1.26l4.84-4.84c2.02-2.02,5.32-2.03,7.35,0l10.46,10.46c.98.98,1.52,2.28,1.52,3.67s-.54,2.69-1.52,3.67l-4.78,4.78c-2.06,2.06-2.56,5.22-1.24,7.86,1.04,2.1,1.96,4.28,2.72,6.49.98,2.83,3.62,4.74,6.59,4.74h6.6c2.87,0,5.2,2.33,5.2,5.2v14.79c0,2.86-2.33,5.2-5.2,5.2h-6.48c-2.98,0-5.63,1.92-6.6,4.78-.76,2.25-1.68,4.47-2.73,6.6-1.3,2.63-.79,5.77,1.26,7.83l4.66,4.66c2.03,2.03,2.03,5.32,0,7.35l-10.46,10.46c-2.03,2.02-5.32,2.03-7.35,0l-4.6-4.61c-2.06-2.06-5.21-2.56-7.85-1.25-2.13,1.06-4.35,1.99-6.6,2.76-2.88.98-4.81,3.67-4.81,6.67v6.3c0,2.86-2.33,5.2-5.2,5.2ZM43.27,114.15c1.63,0,3.27.37,4.8,1.14,1.98.99,4.04,1.85,6.12,2.56,4.45,1.52,7.43,5.67,7.43,10.34v6.3c0,.73.59,1.32,1.32,1.32h14.79c.73,0,1.32-.59,1.32-1.32v-6.3c0-4.67,2.99-8.82,7.43-10.34,2.08-.71,4.14-1.57,6.12-2.56,4.13-2.06,9.08-1.27,12.32,1.97l4.6,4.6c.51.52,1.36.51,1.87,0l10.46-10.46c.25-.25.39-.58.39-.94s-.14-.68-.39-.93l-4.66-4.66c-3.23-3.23-4.03-8.16-1.99-12.28.98-1.98,1.83-4.04,2.53-6.12,1.5-4.43,5.62-7.41,10.27-7.41h6.48c.73,0,1.32-.59,1.32-1.32v-14.79c0-.73-.59-1.32-1.32-1.32h-6.6c-4.62,0-8.74-2.96-10.25-7.35-.71-2.05-1.55-4.08-2.52-6.02-2.06-4.13-1.27-9.09,1.97-12.32l4.78-4.78c.25-.25.39-.58.39-.93s-.14-.68-.39-.93l-10.46-10.46c-.52-.52-1.36-.51-1.87,0l-4.84,4.84c-3.22,3.23-8.16,4.03-12.29,1.99-1.95-.96-3.98-1.8-6.02-2.5-4.38-1.49-7.33-5.58-7.33-10.18v-6.78c0-.73-.59-1.32-1.32-1.32h-14.79c-.73,0-1.32.59-1.32,1.32v6.78c0,4.6-2.95,8.69-7.33,10.18-2.05.7-4.08,1.54-6.03,2.5-4.12,2.03-9.06,1.24-12.29-1.99l-4.84-4.84c-.5-.5-1.37-.5-1.87,0l-10.46,10.46c-.25.25-.39.58-.39.93s.14.68.39.93l4.78,4.78c3.24,3.24,4.03,8.19,1.97,12.32-.97,1.95-1.82,3.97-2.52,6.02-1.51,4.4-5.63,7.36-10.25,7.36h-6.6c-.73,0-1.32.59-1.32,1.32v14.79c0,.73.59,1.32,1.32,1.32h6.48c4.65,0,8.77,2.98,10.27,7.41.71,2.09,1.56,4.15,2.53,6.13,2.04,4.12,1.23,9.05-1.99,12.28l-4.66,4.66c-.25.25-.39.58-.39.93s.14.69.39.94l10.46,10.46c.5.5,1.37.5,1.87,0l4.6-4.6c2.04-2.04,4.76-3.11,7.52-3.11Z"/>
      <path class="cls-1" d="M70.34,109.05c-21.34,0-38.71-17.36-38.71-38.71s17.36-38.71,38.71-38.71,38.71,17.36,38.71,38.71-17.36,38.71-38.71,38.71ZM70.34,35.51c-19.21,0-34.83,15.63-34.83,34.83s15.63,34.83,34.83,34.83,34.83-15.63,34.83-34.83-15.63-34.83-34.83-34.83Z"/>
    </g>
  </g>
</svg>