<?xml version="1.0" encoding="UTF-8"?>
<svg id="Capa_2" data-name="Capa 2" xmlns="http://www.w3.org/2000/svg" viewBox="0 0 138.83 138.83">
  <defs>
    <style>
      .cls-1 {
        fill: #616160;
      }
    </style>
  </defs>
  <g id="Capa_1-2" data-name="Capa 1">
    <g>
      <path class="cls-1" d="M76.81,138.83h-14.8c-2.87,0-5.2-2.33-5.2-5.2v-6.31c0-3.01-1.93-5.7-4.82-6.68-2.25-.77-4.47-1.7-6.61-2.76-2.64-1.31-5.79-.81-7.86,1.25l-4.61,4.61c-1.97,1.97-5.39,1.96-7.35,0l-10.47-10.47c-2.03-2.03-2.03-5.33,0-7.36l4.67-4.67c2.05-2.05,2.56-5.2,1.26-7.83-1.05-2.14-1.97-4.36-2.73-6.61-.97-2.86-3.62-4.78-6.6-4.78h-6.49c-2.87,0-5.2-2.33-5.2-5.2v-14.8c0-2.87,2.33-5.2,5.2-5.2h6.61c2.97,0,5.62-1.91,6.6-4.74.76-2.21,1.67-4.4,2.72-6.5,1.32-2.64.82-5.8-1.25-7.87l-4.78-4.78c-.98-.98-1.52-2.29-1.52-3.68s.54-2.7,1.52-3.68l10.47-10.47c1.96-1.96,5.39-1.97,7.35,0l4.84,4.85c2.05,2.05,5.21,2.56,7.84,1.26,2.1-1.04,4.29-1.95,6.5-2.7,2.81-.96,4.71-3.57,4.71-6.52v-6.79c0-2.87,2.33-5.2,5.2-5.2h14.8c2.87,0,5.2,2.33,5.2,5.2v6.79c0,2.94,1.89,5.56,4.71,6.52,2.21.75,4.4,1.66,6.5,2.69,2.64,1.3,5.79.8,7.84-1.26l4.84-4.85c2.02-2.02,5.32-2.03,7.36,0l10.47,10.47c.98.98,1.52,2.29,1.52,3.68s-.54,2.7-1.52,3.68l-4.78,4.78c-2.06,2.06-2.56,5.22-1.24,7.87,1.05,2.1,1.96,4.28,2.72,6.5.98,2.84,3.63,4.74,6.59,4.74h6.61c2.87,0,5.2,2.33,5.2,5.2v14.8c0,2.87-2.33,5.2-5.2,5.2h-6.49c-2.98,0-5.64,1.92-6.6,4.78-.76,2.25-1.68,4.48-2.73,6.61-1.3,2.63-.8,5.78,1.26,7.83l4.67,4.67c2.03,2.03,2.03,5.33,0,7.36l-10.47,10.47c-2.03,2.03-5.32,2.03-7.36,0l-4.61-4.61c-2.06-2.06-5.22-2.56-7.86-1.25-2.13,1.07-4.36,2-6.61,2.76-2.88.98-4.82,3.67-4.82,6.68v6.31c0,2.87-2.33,5.2-5.2,5.2ZM42.31,113.27c1.63,0,3.27.37,4.81,1.14,1.98.99,4.04,1.85,6.13,2.56,4.45,1.52,7.44,5.68,7.44,10.35v6.31c0,.73.59,1.32,1.32,1.32h14.8c.73,0,1.32-.59,1.32-1.32v-6.31c0-4.67,2.99-8.83,7.44-10.35,2.09-.71,4.15-1.58,6.13-2.56,4.13-2.06,9.09-1.27,12.33,1.98l4.61,4.61c.52.52,1.36.51,1.87,0l10.47-10.47c.25-.25.39-.58.39-.94s-.14-.69-.39-.94l-4.67-4.67c-3.23-3.23-4.03-8.17-1.99-12.29.98-1.98,1.83-4.04,2.54-6.13,1.5-4.44,5.63-7.42,10.28-7.42h6.49c.73,0,1.32-.59,1.32-1.32v-14.8c0-.73-.59-1.32-1.32-1.32h-6.61c-4.62,0-8.75-2.96-10.26-7.36-.71-2.05-1.56-4.08-2.53-6.03-2.06-4.14-1.27-9.1,1.97-12.34l4.78-4.79c.25-.25.39-.58.39-.94s-.14-.69-.39-.93l-10.47-10.47c-.52-.52-1.36-.52-1.87,0l-4.84,4.84c-3.23,3.23-8.17,4.03-12.3,1.99-1.95-.96-3.98-1.8-6.03-2.5-4.39-1.49-7.34-5.58-7.34-10.19v-6.79c0-.73-.59-1.32-1.32-1.32h-14.8c-.73,0-1.32.59-1.32,1.32v6.79c0,4.6-2.95,8.7-7.34,10.19-2.05.7-4.08,1.54-6.03,2.5-4.12,2.04-9.07,1.24-12.3-1.99l-4.84-4.84c-.5-.5-1.37-.5-1.87,0l-10.47,10.47c-.25.25-.39.58-.39.94s.14.69.39.93l4.78,4.79c3.24,3.24,4.04,8.2,1.97,12.34-.97,1.95-1.82,3.98-2.53,6.03-1.51,4.4-5.64,7.36-10.26,7.36h-6.61c-.73,0-1.32.59-1.32,1.32v14.8c0,.73.59,1.32,1.32,1.32h6.49c4.65,0,8.78,2.98,10.28,7.42.71,2.09,1.56,4.15,2.54,6.13,2.04,4.12,1.24,9.06-1.99,12.29l-4.67,4.67c-.25.25-.39.58-.39.94s.14.69.39.94l10.47,10.47c.5.5,1.37.5,1.87,0l4.61-4.61c2.04-2.04,4.76-3.11,7.52-3.11Z"/>
      <path class="cls-1" d="M69.41,108.16c-21.36,0-38.75-17.38-38.75-38.75s17.38-38.75,38.75-38.75,38.75,17.38,38.75,38.75-17.38,38.75-38.75,38.75ZM69.41,34.55c-19.23,0-34.87,15.64-34.87,34.87s15.64,34.87,34.87,34.87,34.87-15.64,34.87-34.87-15.64-34.87-34.87-34.87Z"/>
    </g>
  </g>
</svg>