<?xml version="1.0" encoding="UTF-8"?>
<svg id="Capa_2" data-name="Capa 2" xmlns="http://www.w3.org/2000/svg" viewBox="0 0 84.97 133.09">
  <defs>
    <style>
      .cls-1 {
        fill: #faf9f7;
        stroke: #fcfcfa;
        stroke-miterlimit: 10;
        stroke-width: 20px;
      }
    </style>
  </defs>
  <g id="Capa_1-2" data-name="Capa 1">
    <g>
      <path class="cls-1" d="M41.71,65.34c-17.6,0-31.92-14.32-31.92-31.92S24.11,1.5,41.71,1.5s31.92,14.32,31.92,31.92-14.32,31.92-31.92,31.92ZM41.71,5.11c-15.61,0-28.31,12.7-28.31,28.31s12.7,28.31,28.31,28.31,28.31-12.7,28.31-28.31S57.33,5.11,41.71,5.11Z"/>
      <path class="cls-1" d="M81.66,131.59H3.3c-1,0-1.8-.81-1.8-1.8v-27.07c0-22.6,18.39-40.98,40.98-40.98s40.98,18.39,40.98,40.98v27.07c0,1-.81,1.8-1.8,1.8ZM5.11,127.98h74.75v-25.27c0-20.61-16.77-37.38-37.38-37.38S5.11,82.11,5.11,102.72v25.27Z"/>
    </g>
  </g>
</svg>