<?xml version="1.0" encoding="UTF-8"?><svg id="Capa_2" xmlns="http://www.w3.org/2000/svg" viewBox="0 0 25.19 26.87"><defs><style>.cls-1{fill:#282828;fill-rule:evenodd;stroke-width:0px;}</style></defs><g id="Capa_1-2"><path class="cls-1" d="M2.36,11.02c1.3,0,2.36-1.06,2.36-2.36,0-.16-.02-.32-.05-.47l2.66-1.59c.16.18.34.34.54.49v4.07c-.25-.09-.51-.13-.79-.13-1.3,0-2.36,1.06-2.36,2.36v4.99c0,1.05.41,2.04,1.15,2.78.41.53,2,1.46,2,3.63v1.3c0,.43.35.79.79.79h11.02c.43,0,.79-.35.79-.79v-1.77c0-1.47.64-2.56.66-2.62.6-1.2.91-2.53.91-3.87v-6.01c0-1.3-1.06-2.36-2.36-2.36-.31,0-.6.06-.87.17-.27-1-1.19-1.74-2.28-1.74-.6,0-1.16.23-1.58.6-.42-.37-.97-.6-1.57-.6-.28,0-.54.05-.79.14v-.92c.64-.48,1.11-1.14,1.37-1.89l6.56.82c.23,1.06,1.18,1.86,2.31,1.86,1.3,0,2.36-1.06,2.36-2.36s-1.06-2.36-2.36-2.36c-.92,0-1.72.53-2.11,1.3l-6.56-.82c-.16-2.03-1.86-3.63-3.92-3.63-2.17,0-3.94,1.77-3.94,3.94,0,.45.08.89.22,1.31l-2.66,1.59c-.41-.34-.93-.54-1.5-.54-1.3,0-2.36,1.06-2.36,2.36s1.06,2.36,2.36,2.36h0ZM22.83,4.72c.43,0,.79.35.79.79s-.35.79-.79.79-.79-.35-.79-.79.35-.79.79-.79h0ZM13.38,9.45c.43,0,.79.35.79.79v3.15c0,.44.35.79.79.79s.79-.35.79-.79v-3.15c0-.43.35-.79.79-.79s.79.35.79.79v4.72c0,.43.35.79.79.79s.79-.35.79-.79v-3.15c0-.43.35-.79.79-.79s.79.35.79.79v6.01c0,1.09-.26,2.19-.75,3.17-.04.1-.83,1.41-.83,3.33v.98h-9.45v-.51c0-2.93-2.1-4.27-2.46-4.74-.45-.45-.69-1.04-.69-1.67v-4.99c0-.43.35-.79.79-.79s.79.35.79.79v3.15c0,.43.35.79.79.79s.79-.35.79-.79V5.51c0-.42.34-.77.75-.78l.27.03c.32.1.55.4.55.75v7.87c0,.44.35.79.79.79s.79-.35.79-.79v-3.15c0-.43.35-.79.79-.79h0ZM10.23,1.58c1.3,0,2.36,1.06,2.36,2.36,0,.27-.05.54-.14.79-.33-.92-1.2-1.56-2.2-1.57h-.02c-1.03,0-1.9.66-2.23,1.57-.09-.25-.14-.51-.14-.79,0-1.3,1.06-2.36,2.36-2.36h0ZM2.36,7.87c.43,0,.79.35.79.79s-.35.79-.79.79-.79-.35-.79-.79.35-.79.79-.79Z"/></g></svg>