<?xml version="1.0" encoding="UTF-8"?><svg id="Capa_2" xmlns="http://www.w3.org/2000/svg" viewBox="0 0 26.45 28.46"><defs><style>.cls-1{fill:#7ba052;stroke-width:0px;}</style></defs><g id="Capa_1-2"><path class="cls-1" d="M26.45,7.22V.99c0-.54-.44-.99-.99-.99H.99C.44,0,0,.44,0,.99v6.23c0,.54.44.99.99.99h2.41c.54,0,.99-.44.99-.99v-2.83h17.68v2.83c0,.54.44.99.99.99h2.41c.54,0,.99-.44.99-.99ZM25.26,7.01h-2v-3.22c0-.33-.27-.6-.6-.6H3.79c-.33,0-.6.27-.6.6v3.22h-2V1.19h24.06v5.82Z"/><path class="cls-1" d="M17,24.3h-7.56c-.58,0-1.05.47-1.05,1.05v2.05c0,.58.47,1.05,1.05,1.05h7.56c.58,0,1.05-.47,1.05-1.05v-2.05c0-.58-.47-1.05-1.05-1.05ZM16.86,27.27h-7.28v-1.77h7.28v1.77Z"/><path class="cls-1" d="M18.11,18.64h3.86c.64,0,1.19-.31,1.41-.78.17-.38.11-.8-.17-1.12l-4.38-5.13h0l-4.38-5.13c-.28-.33-.73-.52-1.24-.52h0c-.51,0-.96.19-1.24.52L3.23,16.74c-.28.33-.34.75-.17,1.12.22.47.77.78,1.41.78h3.99v3.64c0,.54.44.99.99.99h7.68c.54,0,.99-.44.99-.99v-3.64ZM17.52,17.45c-.33,0-.6.27-.6.6v4.03h-7.27v-4.03c0-.33-.27-.6-.6-.6h-4.59c-.1,0-.19-.02-.24-.04L12.89,7.25s.16-.1.33-.1h0c.17,0,.3.06.33.1l4.38,5.13h0l4.29,5.03c-.06.02-.14.04-.24.04h-4.46Z"/></g></svg>