<?xml version="1.0" encoding="UTF-8"?><svg id="Capa_2" xmlns="http://www.w3.org/2000/svg" viewBox="0 0 26.45 28.46"><defs><style>.cls-1{fill:#7ba052;stroke-width:0px;}</style></defs><g id="Capa_1-2"><path class="cls-1" d="M0,21.24v6.23c0,.54.44.99.99.99h24.48c.54,0,.99-.44.99-.99v-6.23c0-.54-.44-.99-.99-.99h-2.41c-.54,0-.99.44-.99.99v2.83H4.38v-2.83c0-.54-.44-.99-.99-.99H.99c-.54,0-.99.44-.99.99ZM1.19,21.45h2v3.22c0,.33.27.6.6.6h18.88c.33,0,.6-.27.6-.6v-3.22h2v5.82H1.19v-5.82Z"/><path class="cls-1" d="M9.44,4.16h7.56c.58,0,1.05-.47,1.05-1.05V1.05c0-.58-.47-1.05-1.05-1.05h-7.56c-.58,0-1.05.47-1.05,1.05v2.05c0,.58.47,1.05,1.05,1.05ZM9.58,1.19h7.28v1.77h-7.28v-1.77Z"/><path class="cls-1" d="M8.33,9.81h-3.86c-.64,0-1.19.31-1.41.78-.17.38-.11.8.17,1.12l4.38,5.13h0l4.38,5.13c.28.33.73.52,1.24.52h0c.51,0,.96-.19,1.24-.52l8.75-10.26c.28-.33.34-.75.17-1.12-.22-.47-.77-.78-1.41-.78h-3.99v-3.64c0-.54-.44-.99-.99-.99h-7.68c-.54,0-.99.44-.99.99v3.64ZM8.93,11.01c.33,0,.6-.27.6-.6v-4.03h7.27v4.03c0,.33.27.6.6.6h4.59c.1,0,.19.02.24.04l-8.66,10.15s-.16.1-.33.1h0c-.17,0-.3-.06-.33-.1l-4.38-5.13h0l-4.29-5.03c.06-.02.14-.04.24-.04h4.46Z"/></g></svg>