<?xml version="1.0" encoding="UTF-8"?><svg id="Capa_2" xmlns="http://www.w3.org/2000/svg" viewBox="0 0 24.68 26.93"><defs><style>.cls-1{fill:none;stroke:#231f20;stroke-linecap:round;stroke-linejoin:round;stroke-width:.5px;}</style></defs><g id="Capa_1-2"><polygon class="cls-1" points="13.03 7.14 13.03 .25 20.07 7.14 13.03 7.14"/><path class="cls-1" d="M20.07,10.13v-2.99L13.03.25H.91C.54.25.25.54.25.89v25.15c0,.35.29.64.66.64h18.51c.36,0,.66-.29.66-.64v-2.95"/><line class="cls-1" x1="13.26" y1="22.22" x2="3.06" y2="22.22"/><line class="cls-1" x1="10.88" y1="19.3" x2="3.06" y2="19.3"/><line class="cls-1" x1="10.44" y1="16.38" x2="3.06" y2="16.38"/><line class="cls-1" x1="11.19" y1="13.47" x2="3.06" y2="13.47"/><line class="cls-1" x1="13.95" y1="10.55" x2="3.06" y2="10.55"/><line class="cls-1" x1="11.38" y1="7.63" x2="3.06" y2="7.63"/><line class="cls-1" x1="11.05" y1="4.71" x2="3.06" y2="4.71"/><circle class="cls-1" cx="17.43" cy="16.61" r="6.99" transform="translate(-1.75 31.16) rotate(-80.78)"/><polygon class="cls-1" points="22.54 14.61 20.91 12.75 16.75 17.49 14.4 14.8 12.77 16.67 16.75 21.22 18.39 19.36 18.39 19.36 22.54 14.61"/></g></svg>