<?xml version="1.0" encoding="UTF-8"?><svg id="Capa_2" xmlns="http://www.w3.org/2000/svg" viewBox="0 0 26.31 26.32"><defs><style>.cls-1{fill:#282828;fill-rule:evenodd;stroke-width:0px;}</style></defs><g id="Capa_1-2"><path class="cls-1" d="M9.74,16.89c1.11-.85,1.82-2.18,1.82-3.68,0-2.55-2.08-4.63-4.63-4.63s-4.63,2.08-4.63,4.63c0,1.5.72,2.83,1.82,3.68-2.43,1.08-4.13,3.52-4.13,6.35v2.31c0,.43.34.77.77.77h12.33c.43,0,.77-.35.77-.77v-2.31c0-2.83-1.7-5.27-4.13-6.35h0ZM3.85,13.21c0-1.7,1.38-3.08,3.08-3.08s3.08,1.38,3.08,3.08-1.38,3.08-3.08,3.08-3.08-1.38-3.08-3.08h0ZM12.33,24.77H1.54v-1.54c0-2.98,2.42-5.4,5.4-5.4s5.4,2.42,5.4,5.4v1.54Z"/><path class="cls-1" d="M25.54,0h-12.33c-.43,0-.77.35-.77.77v9.25c0,.43.35.77.77.77h2.31v2.31c0,.31.19.59.48.71.29.12.62.05.84-.17l2.86-2.86h5.85c.43,0,.77-.35.77-.77V.77c0-.43-.34-.77-.77-.77h0ZM24.77,9.25h-5.4c-.2,0-.4.08-.54.23l-1.77,1.77v-1.22c0-.43-.35-.77-.77-.77h-2.31V1.54h10.79v7.71Z"/><path class="cls-1" d="M22.23,3.31c-.3-.3-.79-.3-1.09,0l-2.54,2.54-1-1c-.3-.3-.79-.3-1.09,0-.3.3-.3.79,0,1.09l1.54,1.54c.3.3.79.3,1.09,0l3.08-3.08c.3-.3.3-.79,0-1.09Z"/></g></svg>