<?xml version="1.0" encoding="UTF-8"?><svg id="Capa_2" xmlns="http://www.w3.org/2000/svg" viewBox="0 0 25.35 25.35"><defs><style>.cls-1{fill:#282828;fill-rule:evenodd;stroke-width:0px;}</style></defs><g id="Capa_1-2"><path class="cls-1" d="M19.03,11.99c-.32-2.89-2.75-5.06-5.66-5.06h-.06c.63-.74,1-1.68,1-2.72,0-2.32-1.89-4.21-4.21-4.21s-4.21,1.89-4.21,4.21c0,1.04.38,1.99,1,2.72h-.07c-2.92,0-5.35,2.19-5.66,5.09L.01,22.88c-.07.63.14,1.26.56,1.73.42.47,1.03.74,1.66.74h16.44c3.69,0,6.68-3,6.68-6.68s-2.8-6.48-6.32-6.67h0ZM18.66,23.86c-2.87,0-5.2-2.33-5.2-5.2s2.33-5.2,5.2-5.2,5.2,2.33,5.2,5.2-2.33,5.2-5.2,5.2h0ZM7.38,4.21c0-1.5,1.22-2.72,2.72-2.72s2.72,1.22,2.72,2.72-1.22,2.72-2.72,2.72-2.72-1.22-2.72-2.72h0ZM2.23,23.86c-.21,0-.41-.09-.55-.25-.14-.16-.21-.36-.19-.57l1.16-10.86c.23-2.15,2.03-3.76,4.18-3.76h6.54c2.12,0,3.9,1.57,4.17,3.66-3.15.54-5.56,3.29-5.56,6.59,0,2.1.97,3.97,2.49,5.2H2.23Z"/><path class="cls-1" d="M20.64,17.92h-1.24v-1.24c0-.41-.33-.74-.74-.74s-.74.33-.74.74v1.24h-1.24c-.41,0-.74.33-.74.74s.33.74.74.74h1.24v1.24c0,.41.33.74.74.74s.74-.33.74-.74v-1.24h1.24c.41,0,.74-.33.74-.74s-.33-.74-.74-.74Z"/></g></svg>