<?xml version="1.0" encoding="UTF-8"?><svg id="Capa_2" xmlns="http://www.w3.org/2000/svg" viewBox="0 0 81.9 81.75"><defs><style>.cls-1{fill:#7fa67b;}.cls-2{fill:#92b975;}.cls-3{fill:#fcfcfc;}</style></defs><g id="Capa_1-2"><rect class="cls-1" x="15.26" y="1.93" width="11.68" height="17.96"/><rect class="cls-1" x="56.27" y="1.93" width="10.18" height="17.43"/><rect class="cls-2" x="1.93" y="8.01" width="78.27" height="71.86"/><path class="cls-3" d="m81.9,9.94c0-1.07-.86-1.93-1.93-1.93h-13.32V1.93c0-1.07-.86-1.93-1.93-1.93h-9.75c-1.07,0-1.93.86-1.93,1.93v6.08h-24.16V1.93c0-1.07-.86-1.93-1.93-1.93h-9.75c-1.07,0-1.93.86-1.93,1.93v6.08H1.93C.87,8.01,0,8.88,0,9.94v69.88c0,1.07.86,1.93,1.93,1.93h78.04c1.07,0,1.93-.86,1.93-1.93V9.94Zm-25.01-6.08h5.89v12.16h-5.89V3.86Zm-37.77,0h5.89v12.16h-5.89V3.86ZM3.86,11.88h11.39v6.08c0,1.07.86,1.93,1.93,1.93h9.75c1.07,0,1.93-.86,1.93-1.93v-6.08h24.16v6.08c0,1.07.86,1.93,1.93,1.93h9.75c1.07,0,1.93-.86,1.93-1.93v-6.08h11.39v11.8H3.86v-11.8Zm74.17,66.02H3.86V27.54h74.17v50.36Z"/><path class="cls-3" d="m13.52,70.17h10.18c1.07,0,1.93-.86,1.93-1.93v-10.18c0-1.07-.86-1.93-1.93-1.93h-10.18c-1.07,0-1.93.86-1.93,1.93v10.18c0,1.07.86,1.93,1.93,1.93Zm1.93-10.18h6.32v6.32h-6.32v-6.32Z"/><path class="cls-3" d="m35.86,49.3h10.18c1.07,0,1.93-.86,1.93-1.93v-10.18c0-1.07-.86-1.93-1.93-1.93h-10.18c-1.07,0-1.93.86-1.93,1.93v10.18c0,1.07.86,1.93,1.93,1.93Zm1.93-10.18h6.32v6.32h-6.32v-6.32Z"/><path class="cls-3" d="m35.86,70.17h10.18c1.07,0,1.93-.86,1.93-1.93v-10.18c0-1.07-.86-1.93-1.93-1.93h-10.18c-1.07,0-1.93.86-1.93,1.93v10.18c0,1.07.86,1.93,1.93,1.93Zm1.93-10.18h6.32v6.32h-6.32v-6.32Z"/><path class="cls-3" d="m58.2,49.3h10.18c1.07,0,1.93-.86,1.93-1.93v-10.18c0-1.07-.86-1.93-1.93-1.93h-10.18c-1.07,0-1.93.86-1.93,1.93v10.18c0,1.07.86,1.93,1.93,1.93Zm1.93-10.18h6.32v6.32h-6.32v-6.32Z"/><path class="cls-3" d="m58.2,70.17h10.18c1.07,0,1.93-.86,1.93-1.93v-10.18c0-1.07-.86-1.93-1.93-1.93h-10.18c-1.07,0-1.93.86-1.93,1.93v10.18c0,1.07.86,1.93,1.93,1.93Zm1.93-10.18h6.32v6.32h-6.32v-6.32Z"/></g></svg>