<?xml version="1.0" encoding="UTF-8"?><svg id="Capa_2" xmlns="http://www.w3.org/2000/svg" viewBox="0 0 45.04 63.11"><defs><style>.cls-1{opacity:.69;}.cls-2{fill:none;stroke:#f90613;stroke-miterlimit:10;stroke-width:5px;}.cls-3{fill:#f90613;}</style></defs><g id="Capa_1-2"><g class="cls-1"><path class="cls-2" d="m7.58,2.5h29.98c.51,0,.92.41.92.92v27.38H6.66V3.42c0-.51.41-.92.92-.92Z"/><path class="cls-3" d="m42,25.16H3.03c-1.68,0-3.03,1.36-3.03,3.03v31.88c0,1.68,1.36,3.03,3.03,3.03h38.97c1.68,0,3.03-1.36,3.03-3.03v-31.88c0-1.68-1.36-3.03-3.03-3.03Zm-17.33,18.58v9.93h-4.32v-9.93c-1.58-.79-2.67-2.43-2.67-4.32,0-2.67,2.16-4.83,4.83-4.83s4.83,2.16,4.83,4.83c0,1.89-1.09,3.53-2.67,4.32Z"/></g></g></svg>