<?xml version="1.0" standalone="no"?>
<!DOCTYPE svg PUBLIC "-//W3C//DTD SVG 20010904//EN"
 "http://www.w3.org/TR/2001/REC-SVG-20010904/DTD/svg10.dtd">
<svg version="1.0" xmlns="http://www.w3.org/2000/svg"
 width="142.000000pt" height="99.000000pt" viewBox="0 0 142.000000 99.000000"
 preserveAspectRatio="xMidYMid meet">

<g transform="translate(0.000000,99.000000) scale(0.100000,-0.100000)"
fill="#000000" stroke="none">
<path d="M387 962 c-10 -10 -17 -32 -17 -49 0 -34 -13 -48 -52 -58 -15 -4 -33
-14 -41 -23 -17 -20 -30 -82 -18 -82 5 0 12 16 15 35 7 36 30 55 65 55 25 0
51 36 51 71 0 48 11 50 256 47 l229 -3 5 -45 c3 -25 9 -51 13 -57 6 -10 65
-13 236 -13 208 0 229 -2 244 -18 22 -24 22 -36 -8 -367 -28 -316 -28 -315
-17 -315 4 0 21 151 37 335 l29 336 -22 22 c-22 21 -32 22 -255 27 l-232 5 -6
48 c-3 27 -12 53 -20 58 -7 5 -118 9 -245 9 -211 0 -232 -2 -247 -18z"/>
<path d="M430 910 c0 -6 75 -10 205 -10 130 0 205 4 205 10 0 6 -75 10 -205
10 -130 0 -205 -4 -205 -10z"/>
<path d="M420 850 c0 -6 77 -10 211 -10 137 0 208 3 204 10 -4 6 -85 10 -211
10 -129 0 -204 -4 -204 -10z"/>
<path d="M416 729 c-3 -17 -6 -45 -6 -62 0 -44 18 -21 22 28 l3 40 433 3 432
2 0 -27 c-1 -16 -7 -91 -14 -168 -8 -79 -10 -144 -5 -149 6 -6 9 -6 9 0 0 5 7
81 15 169 8 88 15 168 15 178 0 16 -28 17 -449 17 l-448 0 -7 -31z"/>
<path d="M22 698 c-7 -7 -12 -22 -12 -34 0 -31 160 -626 172 -641 14 -18 1148
-19 1148 -2 0 7 -30 125 -67 263 -44 166 -73 259 -86 274 l-20 22 -378 0
c-289 0 -379 3 -386 13 -5 6 -15 31 -22 54 -6 24 -20 47 -31 53 -27 15 -303
13 -318 -2z m316 -20 c5 -7 15 -32 21 -55 7 -24 20 -47 31 -53 12 -6 157 -10
389 -10 323 0 372 -2 385 -16 9 -8 16 -17 16 -19 0 -2 29 -113 65 -246 36
-133 65 -245 65 -250 0 -5 -236 -9 -543 -9 -419 0 -547 3 -560 12 -12 9 -44
112 -97 310 -79 294 -86 328 -73 341 13 13 290 8 301 -5z"/>
<path d="M401 418 c0 -7 15 -65 32 -128 l32 -115 240 -3 c132 -1 245 0 251 2
9 3 3 39 -20 128 l-33 123 -251 3 c-199 2 -252 0 -251 -10z m513 -106 c14 -54
26 -104 26 -110 0 -9 -61 -12 -229 -12 l-229 0 -11 33 c-5 17 -17 60 -26 94
-8 34 -18 69 -21 78 -5 13 22 15 229 15 l234 0 27 -98z"/>
<path d="M585 340 c-4 -6 27 -10 84 -10 54 0 91 4 91 10 0 6 -35 10 -84 10
-47 0 -88 -4 -91 -10z"/>
<path d="M605 260 c3 -5 44 -10 91 -10 49 0 84 4 84 10 0 6 -37 10 -91 10 -57
0 -88 -4 -84 -10z"/>
</g>
</svg>
