<?xml version="1.0" encoding="UTF-8"?><svg id="Capa_2" xmlns="http://www.w3.org/2000/svg" viewBox="0 0 89.1 49.19"><defs><style>.cls-1{stroke-width:3px;}.cls-1,.cls-2,.cls-3{fill:none;stroke:#272828;stroke-miterlimit:10;}.cls-3{stroke-width:2px;}</style></defs><g id="Capa_1-2"><rect class="cls-3" x="1" y="1" width="87.1" height="47.19"/><path class="cls-1" d="m76.66,42.87c.02-2.32,1.96-4.24,4.28-4.24h0V11.16h0c-3,0-4.37-2.53-4.11-4.84H12.2c.39,2.37-.95,5.07-4.04,5.09v26.95c2.32.02,4.25,1.96,4.25,4.28,0,.07,0,.14-.01.21h64.27Z"/><path class="cls-3" d="m59.82,24.76c0,8.44-6.84,15.27-15.27,15.27s-15.27-6.84-15.27-15.27,6.84-15.27,15.27-15.27,15.27,6.84,15.27,15.27Z"/><path class="cls-2" d="m49.85,28.21c0,2.41-1.43,3.83-4.29,4.24,0,1.71.04,3.14.12,4.29h-2.1c.06-1.15.09-2.54.09-4.15-1.48,0-2.97-.16-4.48-.48l.48-2.83c1.22.42,2.44.63,3.65.63,1.09,0,1.87-.1,2.32-.3.45-.2.67-.55.67-1.05,0-.67-.77-1.33-2.32-1.98-1.44-.61-2.46-1.16-3.06-1.66-.95-.78-1.42-1.73-1.42-2.84s.35-2.01,1.06-2.78c.71-.77,1.75-1.25,3.13-1.44,0-2-.04-3.48-.12-4.44h2.1c-.08.95-.12,2.39-.12,4.34,1.62.02,2.85.17,3.69.45l-.5,2.84c-1.11-.44-2.31-.66-3.59-.66-1.43,0-2.14.42-2.14,1.26,0,.4.19.74.56,1.01.3.23.9.52,1.79.86,1.43.56,2.46,1.1,3.09,1.64.93.8,1.39,1.81,1.39,3.03Z"/></g></svg>