<?xml version="1.0" encoding="UTF-8"?><svg id="Capa_2" xmlns="http://www.w3.org/2000/svg" viewBox="0 0 41.99 68.18"><defs><style>.cls-1{fill:#1f5b29;}</style></defs><g id="Capa_1-2"><path class="cls-1" d="m39.16,32.81H2.83c-1.56,0-2.83,1.27-2.83,2.83v29.72c0,1.56,1.27,2.83,2.83,2.83h36.33c1.56,0,2.83-1.27,2.83-2.83v-29.72c0-1.56-1.27-2.83-2.83-2.83Zm-16.15,17.32v7.25c0,1.11-.9,2.01-2.01,2.01s-2.01-.9-2.01-2.01v-7.25c-1.48-.74-2.49-2.27-2.49-4.03,0-2.49,2.02-4.51,4.51-4.51s4.51,2.02,4.51,4.51c0,1.76-1.01,3.29-2.49,4.03Z"/><path class="cls-1" d="m20.84,0C12.41.08,5.67,7.08,5.67,15.52v21.34h5.92V15.33c0-5.24,4.3-9.49,9.55-9.41,5.16.08,9.26,4.39,9.26,9.55v1.79c0,.16.08.3.21.38l3.04,1.89-2.97,1.15c-.17.07-.29.23-.29.42v1.09c0,.48.39.87.87.87h4.17c.48,0,.87-.39.87-.87v-6.86C36.32,6.82,29.36-.08,20.84,0Z"/></g></svg>