<?xml version="1.0" standalone="no"?>
<!DOCTYPE svg PUBLIC "-//W3C//DTD SVG 20010904//EN"
 "http://www.w3.org/TR/2001/REC-SVG-20010904/DTD/svg10.dtd">
<svg version="1.0" xmlns="http://www.w3.org/2000/svg"
 width="139.000000pt" height="107.000000pt" viewBox="0 0 139.000000 107.000000"
 preserveAspectRatio="xMidYMid meet">

<g transform="translate(0.000000,107.000000) scale(0.100000,-0.100000)"
fill="#000000" stroke="none">
<path d="M920 970 c0 -65 -3 -90 -12 -90 -7 0 -53 -5 -103 -11 -350 -43 -621
-238 -738 -530 -41 -103 -74 -329 -48 -329 5 0 18 15 29 33 34 53 182 191 264
245 143 93 340 157 516 169 l92 6 0 -91 c0 -51 3 -92 8 -92 12 0 452 379 452
390 0 11 -440 390 -452 390 -5 0 -8 -40 -8 -90z m235 -125 l205 -175 -205
-175 c-112 -96 -207 -175 -210 -175 -3 0 -5 36 -5 80 l0 80 -52 0 c-82 0 -234
-26 -328 -56 -175 -55 -325 -149 -452 -283 l-81 -86 6 63 c30 285 205 525 475
649 94 44 240 81 349 90 l83 6 0 78 c0 44 2 79 5 79 3 0 98 -79 210 -175z"/>
</g>
</svg>
