<?xml version="1.0" encoding="UTF-8"?><svg xmlns="http://www.w3.org/2000/svg" xmlns:xlink="http://www.w3.org/1999/xlink" viewBox="0 0 3277.98 2102.36"><defs><style>.cls-1{fill:url(#_Áåçûìÿííûé_ãðàäèåíò_66-5);}.cls-1,.cls-2,.cls-3,.cls-4,.cls-5,.cls-6,.cls-7,.cls-8,.cls-9,.cls-10{mix-blend-mode:multiply;}.cls-11{fill:url(#_Áåçûìÿííûé_ãðàäèåíò_109);}.cls-11,.cls-12,.cls-3,.cls-13,.cls-14,.cls-15,.cls-16,.cls-17{opacity:.3;}.cls-11,.cls-12,.cls-13,.cls-14,.cls-15,.cls-16,.cls-17{mix-blend-mode:color-dodge;}.cls-18{fill:url(#_Áåçûìÿííûé_ãðàäèåíò_246);}.cls-2{fill:url(#_Áåçûìÿííûé_ãðàäèåíò_66);}.cls-19{fill:url(#_Áåçûìÿííûé_ãðàäèåíò_89-2);}.cls-20{fill:url(#_Áåçûìÿííûé_ãðàäèåíò_83);}.cls-21{fill:url(#_Áåçûìÿííûé_ãðàäèåíò_68);}.cls-12{fill:url(#_Áåçûìÿííûé_ãðàäèåíò_70-3);}.cls-22{fill:url(#_Áåçûìÿííûé_ãðàäèåíò_118);}.cls-3{fill:url(#_Áåçûìÿííûé_ãðàäèåíò_64);}.cls-23{fill:url(#_Áåçûìÿííûé_ãðàäèåíò_50-3);}.cls-24{fill:url(#_Áåçûìÿííûé_ãðàäèåíò_111-3);}.cls-13{fill:url(#_Áåçûìÿííûé_ãðàäèåíò_109-2);}.cls-25{fill:url(#_Áåçûìÿííûé_ãðàäèåíò_68-2);}.cls-4{fill:url(#_Áåçûìÿííûé_ãðàäèåíò_66-3);}.cls-26{fill:url(#_Áåçûìÿííûé_ãðàäèåíò_119-3);}.cls-27{isolation:isolate;}.cls-28{fill:url(#_Áåçûìÿííûé_ãðàäèåíò_26);}.cls-5{fill:url(#_Áåçûìÿííûé_ãðàäèåíò_66-6);}.cls-14{fill:url(#_Áåçûìÿííûé_ãðàäèåíò_70);}.cls-6{fill:url(#_Áåçûìÿííûé_ãðàäèåíò_29);opacity:.49;}.cls-29{fill:url(#_Áåçûìÿííûé_ãðàäèåíò_26-5);}.cls-30{fill:url(#_Áåçûìÿííûé_ãðàäèåíò_111);}.cls-31{fill:url(#_Áåçûìÿííûé_ãðàäèåíò_111-2);}.cls-15{fill:url(#_Áåçûìÿííûé_ãðàäèåíò_70-2);}.cls-7{fill:url(#_Áåçûìÿííûé_ãðàäèåíò_66-2);}.cls-32{fill:url(#_Áåçûìÿííûé_ãðàäèåíò_89-3);}.cls-33{fill:#08607f;}.cls-34{fill:#d6dbff;}.cls-35{clip-path:url(#clippath);}.cls-36{fill:#8b141a;}.cls-37{fill:url(#_Áåçûìÿííûé_ãðàäèåíò_50);}.cls-38{fill:url(#_Áåçûìÿííûé_ãðàäèåíò_89);}.cls-39,.cls-40{fill:none;}.cls-41{fill:url(#_Áåçûìÿííûé_ãðàäèåíò_26-3);}.cls-42{opacity:.14;}.cls-43{fill:#f46859;mix-blend-mode:soft-light;}.cls-44{fill:#fffff8;}.cls-45{fill:url(#_Áåçûìÿííûé_ãðàäèåíò_119);}.cls-46{fill:url(#_Áåçûìÿííûé_ãðàäèåíò_246-2);}.cls-47{fill:url(#_Áåçûìÿííûé_ãðàäèåíò_26-4);}.cls-48{fill:url(#_Áåçûìÿííûé_ãðàäèåíò_50-2);}.cls-49{fill:url(#_Áåçûìÿííûé_ãðàäèåíò_26-6);}.cls-50{fill:url(#_Áåçûìÿííûé_ãðàäèåíò_26-2);}.cls-8{fill:url(#_Áåçûìÿííûé_ãðàäèåíò_66-7);}.cls-51{fill:url(#_Áåçûìÿííûé_ãðàäèåíò_101);}.cls-52{fill:url(#_Áåçûìÿííûé_ãðàäèåíò_101-2);opacity:.5;}.cls-40{stroke:#000;}.cls-16{fill:url(#_Áåçûìÿííûé_ãðàäèåíò_70-5);}.cls-53{fill:url(#_Áåçûìÿííûé_ãðàäèåíò_119-2);}.cls-54{fill:url(#_Áåçûìÿííûé_ãðàäèåíò_115);}.cls-9{fill:url(#_Áåçûìÿííûé_ãðàäèåíò_66-8);}.cls-10{fill:url(#_Áåçûìÿííûé_ãðàäèåíò_66-4);}.cls-17{fill:url(#_Áåçûìÿííûé_ãðàäèåíò_70-4);}</style><clipPath id="clippath"><rect class="cls-39" x="114.41" y="287.96" width="3163.56" height="1794.82"/></clipPath><linearGradient id="_Áåçûìÿííûé_ãðàäèåíò_118" x1="699.49" y1="1796.54" x2="773.05" y2="1796.54" gradientUnits="userSpaceOnUse"><stop offset="0" stop-color="#ffbd2b"/><stop offset="1" stop-color="#ffd406"/></linearGradient><linearGradient id="_Áåçûìÿííûé_ãðàäèåíò_119" x1="231.99" y1="1853.44" x2="231.99" y2="1825.67" gradientUnits="userSpaceOnUse"><stop offset="0" stop-color="#f1bfbd"/><stop offset="1" stop-color="#f6d8bf"/></linearGradient><linearGradient id="_Áåçûìÿííûé_ãðàäèåíò_26" x1="141.99" y1="1848.98" x2="141.99" y2="1825.67" gradientUnits="userSpaceOnUse"><stop offset="0" stop-color="#dd8897"/><stop offset="1" stop-color="#eb937a"/></linearGradient><linearGradient id="_Áåçûìÿííûé_ãðàäèåíò_111" x1="538.25" y1="1864.8" x2="538.25" y2="1827.53" gradientUnits="userSpaceOnUse"><stop offset="0" stop-color="#e52c31"/><stop offset="1" stop-color="#f64b6f"/></linearGradient><linearGradient id="_Áåçûìÿííûé_ãðàäèåíò_111-2" x1="923.1" y1="1870.28" x2="923.1" y2="1776.42" xlink:href="#_Áåçûìÿííûé_ãðàäèåíò_111"/><linearGradient id="_Áåçûìÿííûé_ãðàäèåíò_26-2" x1="131.21" y1="1972.7" x2="131.21" y2="1847.97" xlink:href="#_Áåçûìÿííûé_ãðàäèåíò_26"/><linearGradient id="_Áåçûìÿííûé_ãðàäèåíò_119-2" x1="223.9" y1="1968.84" x2="223.9" y2="1847.97" xlink:href="#_Áåçûìÿííûé_ãðàäèåíò_119"/><linearGradient id="_Áåçûìÿííûé_ãðàäèåíò_101" x1="547.76" y1="1974.31" x2="547.76" y2="1776.42" gradientUnits="userSpaceOnUse"><stop offset="0" stop-color="#9d1331"/><stop offset="1" stop-color="#c71f48"/></linearGradient><linearGradient id="_Áåçûìÿííûé_ãðàäèåíò_64" x1="139.58" y1="1884.42" x2="1032.68" y2="1884.42" gradientUnits="userSpaceOnUse"><stop offset="0" stop-color="#450f2b"/><stop offset=".23" stop-color="#4f102e"/><stop offset=".62" stop-color="#6a1537"/><stop offset=".99" stop-color="#8b1b42"/></linearGradient><linearGradient id="_Áåçûìÿííûé_ãðàäèåíò_83" x1="541.38" y1="2060.39" x2="541.38" y2="1866.87" gradientUnits="userSpaceOnUse"><stop offset="0" stop-color="#000725"/><stop offset="1" stop-color="#283445"/></linearGradient><linearGradient id="_Áåçûìÿííûé_ãðàäèåíò_50" x1="99.71" y1="2054" x2="937.12" y2="2054" gradientUnits="userSpaceOnUse"><stop offset="0" stop-color="#ff772b"/><stop offset="1" stop-color="#ff9d06"/></linearGradient><linearGradient id="_Áåçûìÿííûé_ãðàäèåíò_68" x1="116.45" y1="1897.33" x2="160.06" y2="1897.33" gradientUnits="userSpaceOnUse"><stop offset="0" stop-color="#dde5db"/><stop offset="1" stop-color="#8196a5"/></linearGradient><linearGradient id="_Áåçûìÿííûé_ãðàäèåíò_246" x1="107.59" y1="1897.33" x2="159.32" y2="1897.33" gradientUnits="userSpaceOnUse"><stop offset="0" stop-color="#bfccc9"/><stop offset="1" stop-color="#8196a5"/></linearGradient><linearGradient id="_Áåçûìÿííûé_ãðàäèåíò_68-2" x1="304.03" y1="1897.23" x2="340.67" y2="1897.23" xlink:href="#_Áåçûìÿííûé_ãðàäèåíò_68"/><linearGradient id="_Áåçûìÿííûé_ãðàäèåíò_246-2" x1="303.53" y1="1892.5" x2="330.79" y2="1892.5" xlink:href="#_Áåçûìÿííûé_ãðàäèåíò_246"/><linearGradient id="_Áåçûìÿííûé_ãðàäèåíò_111-3" x1="360.17" y1="1934.24" x2="360.17" y2="1900.38" xlink:href="#_Áåçûìÿííûé_ãðàäèåíò_111"/><linearGradient id="_Áåçûìÿííûé_ãðàäèåíò_115" x1="988.62" y1="2043.22" x2="988.62" y2="1866.56" gradientUnits="userSpaceOnUse"><stop offset="0" stop-color="#000e18"/><stop offset="1" stop-color="#39546a"/></linearGradient><linearGradient id="_Áåçûìÿííûé_ãðàäèåíò_50-2" x1="661.38" y1="1836.3" x2="661.38" y2="1765.86" xlink:href="#_Áåçûìÿííûé_ãðàäèåíò_50"/><linearGradient id="_Áåçûìÿííûé_ãðàäèåíò_50-3" x1="389.33" y1="1934.24" x2="389.33" y2="1869.89" xlink:href="#_Áåçûìÿííûé_ãðàäèåíò_50"/><linearGradient id="_Áåçûìÿííûé_ãðàäèåíò_66" x1="68.43" y1="1965.51" x2="1014.44" y2="1965.51" gradientUnits="userSpaceOnUse"><stop offset="0" stop-color="#004d75"/><stop offset="1" stop-color="#007ca1"/></linearGradient><linearGradient id="_Áåçûìÿííûé_ãðàäèåíò_89" x1="68.43" y1="1964.88" x2="1015.93" y2="1964.88" gradientUnits="userSpaceOnUse"><stop offset="0" stop-color="#334d75"/><stop offset="1" stop-color="#43486a"/></linearGradient><linearGradient id="_Áåçûìÿííûé_ãðàäèåíò_66-2" x1="78.2" y1="2004.82" x2="973.83" y2="2004.82" xlink:href="#_Áåçûìÿííûé_ãðàäèåíò_66"/><linearGradient id="_Áåçûìÿííûé_ãðàäèåíò_89-2" x1="78.2" y1="2003.64" x2="976.57" y2="2003.64" xlink:href="#_Áåçûìÿííûé_ãðàäèåíò_89"/><linearGradient id="_Áåçûìÿííûé_ãðàäèåíò_89-3" x1="58.29" y1="1922.35" x2="1048.75" y2="1922.35" xlink:href="#_Áåçûìÿííûé_ãðàäèåíò_89"/><linearGradient id="_Áåçûìÿííûé_ãðàäèåíò_29" x1="58.29" y1="1989.27" x2="951.99" y2="1989.27" gradientUnits="userSpaceOnUse"><stop offset="0" stop-color="#450f2b"/><stop offset=".17" stop-color="#491934"/><stop offset=".46" stop-color="#56354c"/><stop offset=".83" stop-color="#6a6173"/><stop offset=".99" stop-color="#747786"/></linearGradient><linearGradient id="_Áåçûìÿííûé_ãðàäèåíò_109" x1="736.98" y1="2036.41" x2="736.98" y2="1887.28" gradientUnits="userSpaceOnUse"><stop offset="0" stop-color="#d3c79c"/><stop offset="1" stop-color="#000"/></linearGradient><linearGradient id="_Áåçûìÿííûé_ãðàäèåíò_109-2" x1="658.03" x2="658.03" y2="1903.37" xlink:href="#_Áåçûìÿííûé_ãðàäèåíò_109"/><linearGradient id="_Áåçûìÿííûé_ãðàäèåíò_101-2" x1="518.18" y1="2064.64" x2="518.18" y2="2043.22" xlink:href="#_Áåçûìÿííûé_ãðàäèåíò_101"/><linearGradient id="_Áåçûìÿííûé_ãðàäèåíò_66-3" x1="627.93" y1="1904.37" x2="633.56" y2="1904.37" xlink:href="#_Áåçûìÿííûé_ãðàäèåíò_66"/><linearGradient id="_Áåçûìÿííûé_ãðàäèåíò_66-4" x1="472.47" y1="1943.61" x2="478.1" y2="1943.61" xlink:href="#_Áåçûìÿííûé_ãðàäèåíò_66"/><linearGradient id="_Áåçûìÿííûé_ãðàäèåíò_66-5" x1="305.69" y1="1962.76" x2="311.32" y2="1962.76" xlink:href="#_Áåçûìÿííûé_ãðàäèåíò_66"/><linearGradient id="_Áåçûìÿííûé_ãðàäèåíò_66-6" x1="696.9" y1="1895.08" x2="702.52" y2="1895.08" xlink:href="#_Áåçûìÿííûé_ãðàäèåíò_66"/><linearGradient id="_Áåçûìÿííûé_ãðàäèåíò_66-7" x1="384.25" y1="1952.49" x2="389.88" y2="1952.49" xlink:href="#_Áåçûìÿííûé_ãðàäèåíò_66"/><linearGradient id="_Áåçûìÿííûé_ãðàäèåíò_66-8" x1="779.11" y1="1886.85" x2="784.74" y2="1886.85" xlink:href="#_Áåçûìÿííûé_ãðàäèåíò_66"/><linearGradient id="_Áåçûìÿííûé_ãðàäèåíò_26-3" x1="183" y1="1892.15" x2="183" y2="1876.21" xlink:href="#_Áåçûìÿííûé_ãðàäèåíò_26"/><linearGradient id="_Áåçûìÿííûé_ãðàäèåíò_26-4" x1="277.08" y1="1892.15" x2="277.08" y2="1876.21" xlink:href="#_Áåçûìÿííûé_ãðàäèåíò_26"/><linearGradient id="_Áåçûìÿííûé_ãðàäèåíò_119-3" x1="233.39" y1="1834.05" x2="233.39" y2="1766.6" xlink:href="#_Áåçûìÿííûé_ãðàäèåíò_119"/><linearGradient id="_Áåçûìÿííûé_ãðàäèåíò_26-5" x1="162.43" y1="1826.09" x2="162.43" y2="1766.6" xlink:href="#_Áåçûìÿííûé_ãðàäèåíò_26"/><linearGradient id="_Áåçûìÿííûé_ãðàäèåíò_26-6" x1="218.66" y1="1829.23" x2="218.66" y2="1784.52" xlink:href="#_Áåçûìÿííûé_ãðàäèåíò_26"/><linearGradient id="_Áåçûìÿííûé_ãðàäèåíò_70" x1="784.06" y1="1846.53" x2="784.06" y2="1776.42" gradientUnits="userSpaceOnUse"><stop offset="0" stop-color="#000"/><stop offset="1" stop-color="#c7a929"/></linearGradient><linearGradient id="_Áåçûìÿííûé_ãðàäèåíò_70-2" x1="931.81" y1="1853.51" x2="931.81" y2="1802.46" xlink:href="#_Áåçûìÿííûé_ãðàäèåíò_70"/><linearGradient id="_Áåçûìÿííûé_ãðàäèåíò_70-3" x1="993.37" y1="1854.91" x2="993.37" y2="1802.46" xlink:href="#_Áåçûìÿííûé_ãðàäèåíò_70"/><linearGradient id="_Áåçûìÿííûé_ãðàäèåíò_70-4" x1="439.45" y1="1896.73" x2="439.45" y2="1836.29" xlink:href="#_Áåçûìÿííûé_ãðàäèåíò_70"/><linearGradient id="_Áåçûìÿííûé_ãðàäèåíò_70-5" x1="281" y1="1946.23" x2="281" y2="1900.38" xlink:href="#_Áåçûìÿííûé_ãðàäèåíò_70"/></defs><g class="cls-27"><g id="Capa_2"><g id="Capa_1-2"><g class="cls-35"><g><g><path class="cls-44" d="M165.55,1766.6l4.46,1.34s.03,.03,.03,.05l-.79,51.01-.5-.52,16.27,.32c.07,0,.15,.02,.21,.04l9.19,3.59-.16-.04,24.18,2.95-.86,.72,1.79-41.57c.02-.46,.41-.82,.87-.8,.11,0,.22,.03,.31,.07l1.04,.47c.32,.15,.51,.48,.49,.81l-2.07,39.95-.87-.9,26.63-.61c.15,0,.31,.04,.43,.11l3.65,2.17-.34-.11c17.42,1.55,34.83,3.17,52.23,4.83,.13,.01,.25,.07,.34,.14l3.41,2.98-.34-.14,5.68,.35c.22,.01,.4,.16,.47,.35l6.93,19.12-.38-.26,24.98-.08c.07,0,.13,.05,.15,.12l3.37,14.66-3.67-14.59,.15,.12-24.97,.59c-.17,0-.33-.11-.39-.26l-7.18-19.03,.47,.35-5.69-.28c-.13,0-.25-.06-.34-.14l-3.44-2.95,.34,.14c-17.43-1.42-34.85-2.9-52.27-4.43-.12-.01-.24-.05-.34-.11l-3.66-2.16,.43,.11-26.63,.71c-.47,.01-.86-.36-.87-.83v-.07s2.09-39.95,2.09-39.95l.49,.81-1.04-.47,1.19-.73-1.94,41.56c-.02,.42-.37,.75-.79,.73h-.07s-24.16-3.17-24.16-3.17c-.05,0-.11-.02-.16-.04l-9.15-3.69,.21,.04-16.27-.5c-.28,0-.5-.23-.5-.51h0s1.72-51,1.72-51l.03,.05-4.44-1.42Z"/><polygon class="cls-22" points="769.71 1784.7 700.23 1765.86 699.49 1825.79 773.05 1827.22 769.71 1784.7"/><polygon class="cls-45" points="146.1 1848.98 154.06 1825.67 310.82 1834.36 317.88 1853.44 146.1 1848.98"/><polygon class="cls-28" points="154.06 1825.67 138.63 1828.47 129.91 1848.96 146.1 1848.98 154.06 1825.67"/><polygon class="cls-30" points="500.19 1827.53 580.42 1835.64 579.04 1864.8 496.09 1864.8 500.19 1827.53"/><polygon class="cls-31" points="1032.68 1870.28 1031.59 1816.95 969.86 1802.77 966.24 1802.29 899.27 1791.1 898.53 1786.41 813.51 1776.42 815.02 1806.28 924.3 1864.23 965.16 1869.93 1032.68 1870.28"/><polygon class="cls-50" points="104.12 1847.97 94.11 1849.99 91 1868.86 150.81 1868.86 145.52 1972.7 162.95 1968.84 171.42 1861.41 104.12 1847.97"/><polygon class="cls-53" points="162.95 1968.84 165.47 1869.29 101.42 1868.49 104.12 1847.97 342.86 1853.1 346.37 1867.72 301.98 1870.19 305.51 1949.72 162.95 1968.84"/><polygon class="cls-51" points="139.05 1974.31 142.04 1932.7 220.8 1924.36 224.06 1909.73 302.17 1900.38 302.17 1927.93 355.9 1921.86 355.9 1934.24 422.75 1925.83 422.43 1843.11 500.19 1827.53 500.44 1853.93 568.05 1843.99 705.07 1825.02 705.07 1796.82 813.51 1776.42 814.82 1794.7 887.96 1790.75 887.96 1803.63 956.47 1802.46 953.32 1869.24 569.7 1961.93 139.05 1974.31"/><polygon class="cls-3" points="1032.68 1854.91 954.06 1853.51 889.99 1861.5 887.96 1803.63 886.19 1860.19 815.54 1862.65 815.21 1800 807.94 1864.8 704.45 1872.26 703.26 1825.27 698.07 1874.15 614.26 1885.21 608.4 1839.08 609.96 1887.74 502.62 1905.72 501.75 1924.39 428.39 1927.77 422.75 1896.73 422.75 1925.83 355.9 1934.24 355.9 1921.86 351.52 1940.78 305.51 1949.72 302.17 1927.93 302.43 1943.61 225.86 1948.22 224.06 1909.73 219.61 1953.59 141.99 1962.76 142.04 1932.7 139.58 1968.84 1032.14 1877.99 1032.68 1854.91"/><path class="cls-20" d="M105.81,2060.39s-39.77-37.29-47.52-80.26c0,0,234.21-30.82,512.69-59.84,11.82-1.23,40.55-27.48,40.55-27.48,116.83-18.08,313.35-30.68,412.96-24.21,0,0-54.34,127.88-106.75,187.82l-811.92,3.98Z"/><polygon class="cls-37" points="937.12 2064.79 928.49 2043.22 99.71 2054.14 104.12 2061.98 937.12 2064.79"/><polygon class="cls-21" points="125.92 1868.79 160.06 1910.07 159.32 1925.87 116.45 1868.79 125.92 1868.79"/><polygon class="cls-18" points="107.59 1868.95 155.08 1925.35 159.32 1925.87 116.45 1868.79 107.59 1868.95"/><polygon class="cls-25" points="330.79 1868.59 304.03 1916.42 304.49 1926.65 340.67 1867.8 330.79 1868.59"/><polygon class="cls-46" points="327.16 1868.79 303.53 1905.07 304.03 1916.42 330.79 1868.59 327.16 1868.79"/><polygon class="cls-24" points="302.17 1900.38 384.78 1908.7 384.78 1917.09 417.1 1917.35 418.17 1926.86 355.9 1934.24 355.9 1921.86 302.17 1927.93 302.17 1900.38"/><path class="cls-54" d="M928.49,2043.22s31.23-46.75,35.02-176.66c0,0,59.08,1.2,85.24,3.72,0,0-74.62,120.16-120.26,172.94Z"/><polygon class="cls-48" points="622.53 1836.3 623.61 1784.08 700.23 1765.86 699.49 1825.79 622.53 1836.3"/><polygon class="cls-23" points="355.9 1934.24 360.17 1879.07 422.53 1869.89 422.76 1926.65 355.9 1934.24"/><polygon class="cls-36" points="887.96 1790.75 886.19 1865.7 886.19 1790.75 887.96 1790.75"/><polygon class="cls-36" points="814.82 1794.7 813.48 1872.47 816.16 1872.06 815.42 1794.67 814.82 1794.7"/><polygon class="cls-36" points="705.07 1825.02 706.01 1880.75 704.68 1881.15 703.26 1825.27 705.07 1825.02"/><polygon class="cls-36" points="814.3 1839.54 718.7 1851.91 814.3 1840.75 814.3 1839.54"/><polygon class="cls-36" points="608.4 1839.08 609.93 1893.55 611.52 1892.8 609.16 1838.3 608.4 1839.08"/><polygon class="cls-36" points="500.44 1853.93 500.44 1927.77 503.07 1927.77 501.75 1853.74 500.44 1853.93"/><polygon class="cls-36" points="422.75 1896.73 501.75 1884.51 422.75 1894.89 422.75 1896.73"/><polygon class="cls-36" points="302.17 1927.93 302.17 1950.17 302.69 1950.05 302.69 1927.93 302.17 1927.93"/><polygon class="cls-36" points="220.8 1924.36 219.35 1959.98 220.07 1959.89 224.06 1909.73 220.8 1924.36"/><polygon class="cls-36" points="704.75 1852.67 718.7 1851.91 704.63 1854.3 704.75 1852.67"/><polygon class="cls-36" points="502.62 1902.53 594.41 1890.32 502.62 1905.72 502.62 1902.53"/><polygon class="cls-43" points="501.75 1853.74 502.62 1902.53 609.96 1887.74 608.4 1839.08 501.75 1853.74"/><polygon class="cls-43" points="814.82 1794.7 815.94 1849.15 886.19 1845.37 886.19 1790.75 814.82 1794.7"/><polygon class="cls-43" points="302.17 1900.38 224.06 1909.73 220.07 1959.89 302.17 1950.17 302.17 1900.38"/><g><path class="cls-34" d="M815.54,1891.33l-.23-3.23-10.97,.81,.23,3.21,1.81-.13c.21-1.25,.91-2.95,.91-2.95l3.11,1.55s-.48,2.01-.84,2.01c-.15,0-.64,.25-1.2,.46l.48,6.43,3.51,.82-3.41,.54,.76,10.36,3.56-.26-1.42-19.36,3.71-.26Z"/><path class="cls-34" d="M825.34,1887.36l-2.39,.18c-.1,.4-.23,.77-.38,1.14-.15,.35-.35,.68-.61,.94-.26,.28-.61,.51-1.04,.69-.43,.18-.99,.31-1.68,.36l.2,2.5,2.74-.2,1.25,17.23,3.56-.26-1.65-22.59Z"/><path class="cls-34" d="M841.31,1905.66l-6.72,.49c-.03-.12-.05-.28-.07-.49-.05-.63,.08-1.24,.4-1.83,.3-.59,.69-1.2,1.17-1.85,.48-.64,1.01-1.32,1.57-2.03,.36-.44,.69-.92,.99-1.4-1.47-.03-2.77-.08-3.81-.1-.25,.33-.51,.64-.77,.96-.54,.66-1.07,1.37-1.55,2.09-.48,.74-.86,1.55-1.14,2.41-.28,.86-.38,1.85-.3,2.95l.2,2.77,10.26-.76-.23-3.21Zm-8.81,.54c-.35,0-.12-1.24-.63-1.99-.49-.76,2.98-2.03,2.98-2.03l-1.52,2.01s-.48,2.01-.84,2.01Zm8.11-14.52c-.13-1.83-.68-3.2-1.65-4.1-.96-.92-2.31-1.32-4.05-1.19l3.1,.86v.84l-3.71-.48,.61-1.22c-1.75,.13-3.02,.72-3.84,1.76-.82,1.04-1.17,2.47-1.04,4.3l.16,2.21,3.34-.25-.16-2.42c-.07-.82,.07-1.42,.36-1.76,.31-.36,.76-.56,1.3-.59,.56-.05,1.02,.1,1.38,.43,.36,.33,.58,1,.66,2.01,.07,1.09-.03,2.06-.31,2.92-.28,.84-.66,1.61-1.14,2.34-.25,.38-.49,.74-.77,1.09,1.05-.02,2.42-.03,3.92-.07,.16-.23,.3-.46,.44-.71,.46-.82,.84-1.73,1.1-2.72,.28-.97,.38-2.06,.28-3.25Z"/><path class="cls-34" d="M854.91,1903.78l-.23-3.23-1.68,.13-.12-1.63c-.94-.03-2.16-.08-3.53-.13l.15,2.01-3.58,.26,.79-2.36c-1.02-.03-2.08-.08-3.13-.12l-.92,2.72,.25,3.21,6.84-.49,.3,4.1,3.48-.26-.3-4.09,1.68-.13Zm-2.47-10.63h-2.5l2.17-.71,.28-.15-.51-6.87-3.87,.28-1.1,3.26,1.81,.77h-2.08l-2.88,8.52c1.07-.03,2.16-.05,3.2-.08l1.94-5.73,.41,5.68c1.35-.03,2.55-.07,3.49-.08l-.36-4.89Z"/></g><path class="cls-2" d="M1014.44,1923.44l-2.31,3.85s-245.1,4.09-943.7,82.4l.72-1.2s833.54-103.05,945.29-85.05Z"/><path class="cls-38" d="M1015.93,1920.79s-118.58-14.59-946.78,87.69l-.72,1.2s749.43-94.31,946-86.25l1.49-2.65Z"/><path class="cls-7" d="M973.83,1983.62l-3.04,4.35s-207.59-14.61-891.28,41.5l-1.31,.58s687.11-67.28,895.63-46.42Z"/><path class="cls-19" d="M976.57,1979.61s-181.83-18.81-897.06,49.85l-1.31,.58s622.99-65.3,895.63-46.42l2.74-4.01Z"/><path class="cls-32" d="M1048.75,1870.27l-2.98,4.76s-184.9-20.42-432.49,20.73c0,0-31.27,22.11-38.27,24.3-7,2.19-516.72,60.05-516.72,60.05,0,0,514.52-59.05,520.79-62.82,6.27-3.77,32.44-24.5,32.44-24.5,0,0,305.19-43.45,437.23-22.53Z"/><path class="cls-6" d="M58.29,1980.13s60.91,62.93,130.32,63.09c183.89,.43,339.76-99.82,434.25-114.16,189.48-28.75,329.13,84.7,329.13,84.7l-23.5,29.46-828.78,10.92s-35.65-33.93-41.42-74.01Z"/><path class="cls-11" d="M785.37,1888.65c-48.16-5.77-101.48,8.57-101.48,8.57,5.84,56.86,34.81,139.18,34.81,139.18h71.37c-9.93-42.08-4.7-147.76-4.7-147.76Z"/><path class="cls-13" d="M709.37,2035.98s-25.71-49.81-47.36-132.48c0,0-27.69-1.54-55.31,6.14,0,0,25.07,72.92,76.53,126.78l26.14-.43Z"/><polygon class="cls-52" points="107.87 2054.66 111.36 2061.54 114.11 2054.66 120.79 2060.59 120.79 2054.66 258.65 2054.66 269.24 2062.54 375.85 2061.86 381.48 2054.66 381.48 2060.59 383.75 2054.66 383.75 2059.28 397.02 2053.83 407.87 2051.74 410.03 2060.39 415.77 2054.14 432.17 2051.15 446.12 2051.74 448.24 2058.71 450.2 2053.83 455.1 2061.52 452.48 2051.74 721.71 2049.09 749.42 2051.15 763.73 2059.83 773.05 2064.24 773.05 2054.14 783.94 2061.52 828.18 2056.85 824.57 2047.75 880.66 2047.75 891.77 2064.64 888.04 2049.09 901.57 2064.64 899.65 2054.62 928.49 2043.22 107.87 2054.66"/><path class="cls-4" d="M633.56,1904.37c0,2.36-1.26,4.28-2.81,4.28s-2.81-1.92-2.81-4.28,1.26-4.28,2.81-4.28,2.81,1.92,2.81,4.28Z"/><path class="cls-10" d="M478.1,1943.61c0,2.36-1.26,4.28-2.81,4.28s-2.81-1.92-2.81-4.28,1.26-4.28,2.81-4.28,2.81,1.92,2.81,4.28Z"/><path class="cls-1" d="M311.32,1962.76c0,2.36-1.26,4.28-2.81,4.28s-2.81-1.92-2.81-4.28,1.26-4.28,2.81-4.28,2.81,1.92,2.81,4.28Z"/><path class="cls-5" d="M702.52,1895.08c0,2.36-1.26,4.28-2.81,4.28s-2.81-1.92-2.81-4.28,1.26-4.28,2.81-4.28,2.81,1.92,2.81,4.28Z"/><path class="cls-8" d="M389.88,1952.49c0,2.36-1.26,4.28-2.81,4.28s-2.81-1.92-2.81-4.28,1.26-4.28,2.81-4.28,2.81,1.92,2.81,4.28Z"/><path class="cls-9" d="M784.74,1886.85c0,2.36-1.26,4.28-2.81,4.28s-2.81-1.92-2.81-4.28,1.26-4.28,2.81-4.28,2.81,1.92,2.81,4.28Z"/><polygon class="cls-41" points="177.81 1876.21 177.46 1892.1 188.55 1892.15 188.55 1876.62 177.81 1876.21"/><polygon class="cls-47" points="271.88 1876.21 271.53 1892.1 282.62 1892.15 282.62 1876.62 271.88 1876.21"/><polygon class="cls-26" points="161.65 1826.09 165.55 1766.6 170 1767.98 168.74 1818.98 185.01 1819.39 194.18 1823.03 218.35 1826.09 220.22 1784.52 221.26 1784.99 219.18 1824.94 245.81 1824.28 249.46 1826.45 277.92 1828.5 301.71 1831.08 305.14 1834.05 161.65 1826.09"/><polygon class="cls-29" points="165.55 1766.6 163.92 1767.04 159.32 1825.85 161.65 1826.09 165.55 1766.6"/><polygon class="cls-49" points="220.22 1784.52 219.43 1784.94 217.1 1829.16 218.35 1829.23 220.22 1784.52"/><polygon class="cls-14" points="755.63 1788.98 813.51 1776.42 808.43 1838.3 754.6 1846.53 755.63 1788.98"/><polygon class="cls-15" points="909.14 1803.96 907.15 1847.63 954.06 1853.51 956.47 1802.46 909.14 1803.96"/><polygon class="cls-12" points="956.47 1802.46 954.06 1853.51 1032.68 1854.91 1031.59 1816.95 956.47 1802.46"/><polygon class="cls-17" points="456.46 1836.29 449.7 1891.19 422.75 1896.73 422.43 1843.11 456.46 1836.29"/><polygon class="cls-16" points="267.49 1904.53 259.56 1946.23 302.43 1943.61 302.17 1900.38 267.49 1904.53"/><path class="cls-44" d="M360.17,1879.07l62.33-9.43-.23,.26-.22-26.79c0-.18,.13-.34,.3-.37l77.73-15.73c.05-.01,.11-.01,.16,0l80.23,8c.33,.03,.59,.32,.59,.65v6.1s-.74-.66-.74-.66l42.11-5.51-.63,.7,1.01-52.22c0-.37,.27-.68,.61-.76l76.6-18.28c.14-.03,.29-.03,.42,0l69.46,18.94h-.34s43.81-8.23,43.81-8.23c.07-.01,.14-.01,.21,0l85,10.12c.26,.03,.45,.23,.49,.47l.73,4.69-.46-.46,66.51,11.21c10.98,2.41,21.93,4.98,32.89,7.47l32.88,7.52c.09,.02,.15,.1,.16,.19l.67,47.3-1.07-47.29,.16,.19-65.85-14.48-66.52-11.01c-.24-.04-.42-.23-.46-.46l-.74-4.69,.49,.47-85.03-9.87h.21s-43.79,8.34-43.79,8.34c-.11,.02-.23,.01-.34-.01l-69.51-18.74h.42s-76.63,18.17-76.63,18.17l.61-.76-1.16,52.21c0,.36-.28,.66-.63,.7l-42.12,5.39c-.36,.05-.69-.21-.74-.57v-.09s0-6.1,0-6.1l.59,.65-80.21-8.23h.16s-77.79,15.42-77.79,15.42l.3-.37v26.79c0,.13-.11,.24-.23,.26l-62.41,8.91Z"/></g><path class="cls-33" d="M99.71,2054.14s-60.82,3.77-70.67,6.25c-9.85,2.47-71.75-4.56,22.51,15.14,94.26,19.7,115.37,30.95,195.56,25.32,80.19-5.63-25.32-19.7,123.81-8.44,149.13,11.26,113.56,8.52,223.5,9.89,109.94,1.37,126.82-18.33,166.21-15.52,39.39,2.81,170.09,23.56,176.49-21.99,6.4-45.54-837.41-10.65-837.41-10.65Z"/></g></g><g><g class="cls-42"><path class="cls-40" d="M2319.76,959.44c0-80.98,60.14-143.08,143.09-143.08,49.92,0,93.95,24.76,117.93,63.68l-54.25,31.45c-12.19-21.23-35.77-33.81-63.68-33.81-48.74,0-80.19,32.63-80.19,81.76s31.45,81.76,80.19,81.76c27.91,0,51.89-12.58,63.68-33.81l54.25,31.45c-23.59,38.92-67.61,63.68-117.93,63.68-82.94,0-143.09-62.11-143.09-143.09Z"/><path class="cls-40" d="M2678.65,821.86v275.16h-62.89v-275.16h62.89Z"/><path class="cls-40" d="M2719.53,959.44c0-80.98,64.07-143.08,143.09-143.08s143.08,62.11,143.08,143.08-64.07,143.09-143.08,143.09-143.09-62.11-143.09-143.09Zm223.28,0c0-49.14-35.38-81.76-80.19-81.76s-80.19,32.63-80.19,81.76,35.38,81.76,80.19,81.76,80.19-32.63,80.19-81.76Zm-58.96-165.1l45.6-55.03h-70.76l-31.45,55.03h56.6Z"/><path class="cls-40" d="M3262.78,821.86v275.16h-47.17l-106.13-149.37v149.37h-62.89v-275.16h47.17l106.13,149.37v-149.37h62.89Z"/></g><g class="cls-42"><path class="cls-40" d="M2218.17,7.35V349.61h-78.23V7.35h78.23Z"/><path class="cls-40" d="M2545.77,7.35V349.61h-58.67l-132.02-185.8v185.8h-78.23V7.35h58.68l132.02,185.8V7.35h78.23Z"/><path class="cls-40" d="M2873.37,7.35V349.61h-58.68l-132.02-185.8v185.8h-78.23V7.35h58.67l132.02,185.8V7.35h78.23Z"/><path class="cls-40" d="M2917.38,178.48c0-100.72,79.7-177.98,177.98-177.98s177.98,77.25,177.98,177.98-79.7,177.98-177.98,177.98-177.98-77.25-177.98-177.98Zm277.73,0c0-61.12-44.01-101.7-99.75-101.7s-99.75,40.58-99.75,101.7,44,101.7,99.75,101.7,99.75-40.58,99.75-101.7Z"/></g><g class="cls-42"><path class="cls-40" d="M2638.17,377.15h85.57l75.79,251.81,75.79-251.81h85.57l-111.48,342.27h-99.75l-111.48-342.27Z"/><path class="cls-40" d="M3171.13,665.64h-127.13l-17.11,53.78h-85.57l116.37-342.27h99.75l116.37,342.27h-85.57l-17.11-53.78Zm-23.47-73.34l-40.1-125.66-40.09,125.66h80.19Z"/></g></g></g></g></g></svg>