<?xml version="1.0" standalone="no"?>
<!DOCTYPE svg PUBLIC "-//W3C//DTD SVG 20010904//EN"
 "http://www.w3.org/TR/2001/REC-SVG-20010904/DTD/svg10.dtd">
<svg version="1.0" xmlns="http://www.w3.org/2000/svg"
 width="131.000000pt" height="103.000000pt" viewBox="0 0 131.000000 103.000000"
 preserveAspectRatio="xMidYMid meet">

<g transform="translate(0.000000,103.000000) scale(0.100000,-0.100000)"
fill="#000000" stroke="none">
<path d="M728 848 l-3 -173 -47 -3 c-27 -2 -48 -5 -48 -8 0 -10 202 -244 211
-244 8 0 201 223 207 240 2 5 -18 10 -45 12 l-48 3 -3 173 -2 172 -110 0 -110
0 -2 -172z m212 -23 l0 -175 35 0 c19 0 35 -2 35 -5 0 -9 -162 -195 -170 -195
-3 0 -44 44 -90 98 l-83 97 37 3 36 3 0 175 0 174 100 0 100 0 0 -175z"/>
<path d="M10 840 l0 -50 123 0 122 0 125 -290 125 -290 327 0 c209 0 328 4
328 10 0 6 -119 11 -322 12 l-322 3 -141 325 -141 325 -112 3 -112 3 0 -51z
m220 4 c6 -14 10 -27 10 -30 0 -2 -47 -4 -105 -4 -85 0 -107 3 -111 15 -15 38
2 45 101 45 93 0 96 -1 105 -26z"/>
<path d="M372 733 c3 -54 5 -58 29 -61 23 -3 32 -19 100 -195 l74 -192 263 -3
263 -2 23 52 c12 29 47 117 77 195 48 127 57 142 79 145 23 3 25 8 28 61 l3
57 -156 0 c-97 0 -155 -4 -155 -10 0 -6 55 -10 145 -10 l145 0 0 -40 c0 -35
-3 -40 -23 -40 -22 0 -31 -19 -99 -192 l-75 -193 -253 0 -252 0 -18 45 c-132
341 -131 340 -156 340 -21 0 -24 4 -24 40 l0 40 150 0 c93 0 150 4 150 10 0 6
-60 10 -160 10 l-161 0 3 -57z"/>
<path d="M455 155 c-54 -53 -16 -145 60 -145 49 0 85 36 85 85 0 76 -92 114
-145 60z m107 -12 c40 -36 8 -113 -49 -113 -55 0 -85 70 -46 112 20 22 70 23
95 1z"/>
<path d="M1042 160 c-41 -38 -40 -92 1 -130 51 -48 137 -7 137 65 0 72 -86
113 -138 65z m100 -17 c22 -20 23 -70 1 -95 -36 -40 -113 -8 -113 47 0 54 71
85 112 48z"/>
</g>
</svg>
