<?xml version="1.0" encoding="UTF-8"?><svg id="Capa_2" xmlns="http://www.w3.org/2000/svg" viewBox="0 0 85.42 53.56"><defs><style>.cls-1{fill:#5ba56b;}.cls-2{opacity:.79;}</style></defs><g id="Capa_1-2"><g class="cls-2"><path id="s" class="cls-1" d="m64.98,36.25c-3.32,0-6.24,1.74-7.9,4.36h-28.16c-1.06-1.67-2.63-2.99-4.5-3.72V0h61.01v40.61h-12.54c-1.65-2.62-4.57-4.36-7.9-4.36Z"/><path id="s-2" class="cls-1" d="m85.42,44.14c0,.37-.16.74-.47,1.03-.32.28-.73.42-1.15.42h-9.49c0-1.27-.25-2.48-.71-3.58h11.82v2.13Z"/><path id="s-3" class="cls-1" d="m55.65,45.58h-25.29c0-1.27-.25-2.48-.71-3.58h26.71c-.46,1.1-.71,2.31-.71,3.58Z"/><path id="s-4" class="cls-1" d="m0,24.87v16.85c0,.99.38,1.98,1.14,2.73.75.76,1.74,1.13,2.73,1.13h7.82c0-5.15,4.18-9.33,9.33-9.33.53,0,1.04.04,1.55.13V9.73s-6.3.03-9.52.51c-3.23.48-6.6,2.7-9.18,5.28C1.29,18.11,0,21.49,0,24.87Zm2.72-.25c0-2.49.95-4.97,2.85-6.87,1.89-1.89,4.37-3.52,6.74-3.88,2.37-.35,6.99-.38,6.99-.38v11.81c0,.31-.1.62-.31.88-.21.26-.49.42-.79.47l-13.82,2.76c-.39.08-.81-.01-1.14-.28-.33-.28-.51-.67-.51-1.07v-3.45Z"/><path id="s-5" class="cls-1" d="m57.86,42.01c-.55,1.07-.85,2.29-.85,3.58,0,4.41,3.57,7.98,7.97,7.98,4.41,0,7.98-3.57,7.98-7.98,0-1.29-.3-2.5-.85-3.58-.15-.3-.32-.59-.51-.88-.13-.18-.25-.35-.39-.52-1.46-1.83-3.71-3-6.24-3-2.52,0-4.77,1.17-6.23,3-.14.17-.26.34-.39.52-.19.28-.36.57-.51.88Zm2.99,3.58c0-1.53.83-2.87,2.08-3.58.6-.35,1.31-.55,2.05-.55s1.45.2,2.05.55c1.24.71,2.08,2.05,2.08,3.58,0,2.28-1.85,4.13-4.13,4.13-2.28,0-4.13-1.85-4.13-4.13Z"/><path id="s-6" class="cls-1" d="m13.05,45.58c0,4.41,3.57,7.98,7.97,7.98,4.41,0,7.97-3.57,7.97-7.98,0-1.65-.5-3.18-1.36-4.45-.8-1.19-1.91-2.15-3.22-2.76-.58-.28-1.2-.48-1.85-.61-.5-.1-1.02-.15-1.55-.15-4.41,0-7.97,3.57-7.97,7.97Zm3.84,0c0-2.28,1.85-4.13,4.13-4.13.55,0,1.07.11,1.55.3.75.3,1.39.82,1.85,1.48.46.67.74,1.48.74,2.35,0,2.28-1.85,4.13-4.13,4.13-2.28,0-4.13-1.85-4.13-4.13Z"/><rect id="white_stripe" class="cls-1" x="24.41" y="3.48" width="61.01" height="1.04"/></g></g></svg>