<?xml version="1.0" encoding="UTF-8"?><svg id="Capa_2" xmlns="http://www.w3.org/2000/svg" viewBox="0 0 27.67 23.77"><defs><style>.cls-1{fill:none;stroke:#231f20;stroke-linecap:round;stroke-linejoin:round;stroke-width:.5px;}</style></defs><g id="Capa_1-2"><path class="cls-1" d="M16.24,14.5H3.84l-3.59,3.79V4.45C.25,2.13,2.13.25,4.45.25h11.79c2.32,0,4.2,1.88,4.2,4.2v5.84c0,2.32-1.88,4.2-4.2,4.2Z"/><path class="cls-1" d="M7.22,14.5v1.03c0,2.32,1.88,4.2,4.2,4.2h12.41l3.59,3.79v-13.84c0-2.32-1.88-4.2-4.2-4.2h-2.77"/><path class="cls-1" d="M5.91,7.73c0,.19-.15.34-.34.34s-.34-.15-.34-.34.15-.34.34-.34.34.15.34.34Z"/><path class="cls-1" d="M10.69,7.73c0,.19-.15.34-.34.34s-.34-.15-.34-.34.15-.34.34-.34.34.15.34.34Z"/><path class="cls-1" d="M15.47,7.73c0,.19-.15.34-.34.34s-.34-.15-.34-.34.15-.34.34-.34.34.15.34.34Z"/></g></svg>