<?xml version="1.0" encoding="UTF-8"?><svg id="Capa_2" xmlns="http://www.w3.org/2000/svg" viewBox="0 0 27.13 23.73"><defs><style>.cls-1{fill:#282828;fill-rule:evenodd;stroke-width:0px;}</style></defs><g id="Capa_1-2"><path class="cls-1" d="M22.3,15.22l-2,2.67-1.05-1.05c-.74-.74-1.87.38-1.12,1.12l1.7,1.7c.34.34.91.3,1.2-.09l2.55-3.41c.63-.84-.64-1.8-1.27-.95Z"/><path class="cls-1" d="M25.43,13.08V4.63c0-2.55-2.07-4.63-4.63-4.63H4.63C2.07,0,0,2.07,0,4.63v18.31c0,.68.79,1.04,1.3.61l4.89-4.07h8.63c.86,2.47,3.22,4.26,5.98,4.26,3.49,0,6.33-2.84,6.33-6.33,0-1.67-.65-3.18-1.7-4.31h0ZM14.49,17.88H5.9c-.19,0-.37.07-.51.18l-3.8,3.17V4.63c0-1.67,1.36-3.04,3.04-3.04h16.18c1.67,0,3.04,1.36,3.04,3.04v7.22c-.9-.5-1.94-.78-3.04-.78-3.49,0-6.33,2.84-6.33,6.33,0,.16,0,.32.02.48h0ZM20.8,22.14c-2.61,0-4.74-2.13-4.74-4.74s2.13-4.74,4.74-4.74,4.74,2.13,4.74,4.74-2.13,4.74-4.74,4.74Z"/><path class="cls-1" d="M5.05,7.12h15.33c.44,0,.79-.36.79-.79s-.36-.8-.79-.8H5.05c-.44,0-.79.36-.79.8s.36.79.79.79Z"/><path class="cls-1" d="M15.27,8.94H5.05c-.44,0-.79.36-.79.79s.36.8.79.8h10.22c.44,0,.8-.36.8-.8s-.36-.79-.8-.79Z"/><path class="cls-1" d="M11.92,12.35h-6.87c-.44,0-.79.36-.79.79s.36.79.79.79h6.87c.44,0,.8-.36.8-.79s-.36-.79-.8-.79Z"/></g></svg>