<?xml version="1.0" encoding="UTF-8"?><svg id="Capa_2" xmlns="http://www.w3.org/2000/svg" viewBox="0 0 28.27 24.78"><defs><style>.cls-1{fill:none;stroke:#231f20;stroke-linecap:round;stroke-linejoin:round;stroke-width:.75px;}</style></defs><g id="Capa_1-2"><path class="cls-1" d="M24.59,15.39l1.01-11.54c.06-.64-.45-1.19-1.09-1.19h-7.46c-.48,0-.86-.41-.82-.89l.04-.5c.04-.48-.34-.89-.82-.89h-7.63c-.43,0-.78.33-.82.75l-.07.78c-.04.43-.39.75-.82.75h-.11c-.57,0-1.04.43-1.09,1l-.06.64"/><line class="cls-1" x1="7.95" y1="1.52" x2="15.27" y2="1.52"/><line class="cls-1" x1="7.85" y1="2.66" x2="15.17" y2="2.66"/><path class="cls-1" d="M12.28,17.79H4.11c-.37,0-.7-.25-.79-.61L.4,6.3c-.14-.52.25-1.04.79-1.04h4.35c.5,0,.93.33,1.06.81l.27,1c.1.36.42.61.79.61h12.97c.5,0,.93.33,1.06.81l.27,1"/><polyline class="cls-1" points="23.74 16.12 24.19 17.79 23.73 17.79"/><line class="cls-1" x1="11.26" y1="13.31" x2="9.83" y2="13.31"/><line class="cls-1" x1="9.45" y1="11.89" x2="11.51" y2="11.89"/><polyline class="cls-1" points="12.13 10.48 7.51 10.48 8.65 14.73 11.07 14.73"/><polyline class="cls-1" points="7.68 6.17 7.83 4.44 23.95 4.44 23.46 10.02"/><circle class="cls-1" cx="17.65" cy="14.16" r="5.56"/><circle class="cls-1" cx="17.65" cy="14.16" r="4.1"/><polyline class="cls-1" points="22.18 17.5 23.97 19.29 22.78 20.48 20.99 18.69"/><rect class="cls-1" x="23.8" y="19.14" width="2.71" height="5.05" transform="translate(-7.95 24.13) rotate(-45)"/><line class="cls-1" x1="26.04" y1="20.63" x2="24.2" y2="22.47"/><line class="cls-1" x1="25.18" y1="19.78" x2="23.35" y2="21.62"/></g></svg>