<?xml version="1.0" encoding="UTF-8"?><svg id="Capa_2" xmlns="http://www.w3.org/2000/svg" viewBox="0 0 23.29 29.3"><defs><style>.cls-1{fill:none;stroke:#231f20;stroke-linecap:round;stroke-linejoin:round;stroke-width:.5px;}</style></defs><g id="Capa_1-2"><polygon class="cls-1" points="17.59 5.82 17.59 .5 23.04 5.82 17.59 5.82"/><path class="cls-1" d="M15.57,20.92h6.96c.28,0,.51-.22.51-.5V5.82L17.59.5h-9.37c-.28,0-.51.22-.51.5v6.97"/><polygon class="cls-1" points="10.12 13.29 10.12 7.97 15.57 13.29 10.12 13.29"/><path class="cls-1" d="M10.12,7.97H.76c-.28,0-.51.22-.51.5v19.43c0,.27.23.5.51.5h14.31c.28,0,.51-.22.51-.5v-14.61l-5.44-5.32Z"/><line class="cls-1" x1="13.4" y1="24.95" x2="2.42" y2="24.95"/><line class="cls-1" x1="13.4" y1="22.69" x2="2.42" y2="22.69"/><line class="cls-1" x1="13.4" y1="20.44" x2="2.42" y2="20.44"/><line class="cls-1" x1="13.4" y1="18.18" x2="2.42" y2="18.18"/><line class="cls-1" x1="13.4" y1="15.93" x2="2.42" y2="15.93"/><line class="cls-1" x1="8.85" y1="13.67" x2="2.42" y2="13.67"/><line class="cls-1" x1="8.59" y1="11.42" x2="2.42" y2="11.42"/><path class="cls-1" d="M22.56,22.59c0,2.81-2.27,5.08-5.08,5.08"/><polyline class="cls-1" points="18.2 29.05 16.76 27.62 18.2 26.18"/><path class="cls-1" d="M.48,6.71C.48,3.91,2.75,1.63,5.56,1.63"/><polyline class="cls-1" points="4.84 .25 6.27 1.69 4.84 3.12"/></g></svg>