<?xml version="1.0" encoding="UTF-8"?><svg id="Capa_2" xmlns="http://www.w3.org/2000/svg" viewBox="0 0 24.45 24.45"><defs><style>.cls-1{fill:#282828;fill-rule:evenodd;stroke-width:0px;}</style></defs><g id="Capa_1-2"><path class="cls-1" d="M19.95,5.94c-.28-.28-.73-.28-1.01,0l-.21.21v-1.14c0-1.19-.97-2.15-2.15-2.15h-4.4c-.4,0-.72.32-.72.72s.32.72.72.72h4.4c.39,0,.72.32.72.72v1.14l-.21-.21c-.28-.28-.73-.28-1.01,0-.28.28-.28.73,0,1.01l1.43,1.43c.14.14.32.21.51.21s.37-.07.51-.21l1.43-1.43c.28-.28.28-.73,0-1.01Z"/><path class="cls-1" d="M10.75,20.11h-4.3c-.4,0-.72-.32-.72-.72v-1.14l.21.21c.28.28.73.28,1.01,0,.28-.28.28-.73,0-1.01l-1.43-1.43c-.28-.28-.73-.28-1.01,0l-1.43,1.43c-.28.28-.28.73,0,1.01.28.28.73.28,1.01,0l.21-.21v1.14c0,1.18.96,2.15,2.15,2.15h4.3c.4,0,.72-.32.72-.72s-.32-.72-.72-.72Z"/><path class="cls-1" d="M8.11,6.25c.73-.66,1.2-1.61,1.2-2.67,0-1.98-1.61-3.58-3.58-3.58s-3.58,1.61-3.58,3.58c0,1.06.46,2.02,1.2,2.67-1.98.91-3.35,2.93-3.35,5.26v2.15c0,.4.32.72.72.72h10.03c.4,0,.72-.32.72-.72v-2.15c0-2.33-1.38-4.34-3.35-5.26h0ZM5.73,1.43c1.19,0,2.15.96,2.15,2.15s-.96,2.15-2.15,2.15-2.15-.96-2.15-2.15.96-2.15,2.15-2.15h0ZM10.03,12.94H1.43v-1.43c0-2.4,1.93-4.35,4.3-4.35s4.3,1.95,4.3,4.35v1.43Z"/><path class="cls-1" d="M21.11,16.33c.73-.66,1.2-1.61,1.2-2.67,0-1.98-1.61-3.58-3.58-3.58s-3.58,1.61-3.58,3.58c0,1.06.46,2.01,1.2,2.67-1.97.91-3.35,2.9-3.35,5.21v2.2c0,.4.32.72.72.72h10.03c.4,0,.72-.32.72-.72v-2.2c0-2.31-1.37-4.31-3.35-5.21h0ZM18.72,11.51c1.18,0,2.15.96,2.15,2.15s-.96,2.15-2.15,2.15-2.15-.96-2.15-2.15.96-2.15,2.15-2.15h0ZM23.02,23.02h-8.6v-1.48c0-2.37,1.93-4.3,4.3-4.3s4.3,1.93,4.3,4.3v1.48Z"/></g></svg>