<?xml version="1.0" encoding="UTF-8"?><svg id="Capa_2" xmlns="http://www.w3.org/2000/svg" viewBox="0 0 40.59 25.45"><defs><style>.cls-1{fill:#5ba56b;stroke-width:0px;}.cls-2{opacity:.79;}</style></defs><g id="Capa_1-2"><g class="cls-2"><path id="s" class="cls-1" d="M30.88,17.23c-1.58,0-2.97.83-3.75,2.07h-13.38c-.5-.8-1.25-1.42-2.14-1.77V0h28.99v19.3h-5.96c-.79-1.24-2.17-2.07-3.75-2.07Z"/><path id="s-2" class="cls-1" d="M40.59,20.97c0,.18-.07.35-.23.49-.15.13-.35.2-.55.2h-4.51c0-.6-.12-1.18-.34-1.7h5.62v1.01Z"/><path id="s-3" class="cls-1" d="M26.44,21.66h-12.02c0-.6-.12-1.18-.34-1.7h12.69c-.22.52-.34,1.1-.34,1.7Z"/><path id="s-4" class="cls-1" d="M0,11.82v8.01c0,.47.18.94.54,1.3.36.36.83.54,1.3.54h3.72c0-2.45,1.99-4.43,4.43-4.43.25,0,.5.02.74.06V4.63s-2.99.01-4.52.24c-1.53.23-3.13,1.28-4.36,2.51S0,10.21,0,11.82ZM1.29,11.7c0-1.18.45-2.36,1.35-3.26.9-.9,2.08-1.67,3.2-1.84,1.12-.17,3.32-.18,3.32-.18v5.61c0,.15-.05.29-.15.42-.1.12-.23.2-.38.23l-6.57,1.31c-.19.04-.38,0-.54-.13-.16-.13-.24-.32-.24-.51v-1.64Z"/><path id="s-5" class="cls-1" d="M27.49,19.96c-.26.51-.4,1.09-.4,1.7,0,2.09,1.69,3.79,3.79,3.79,2.09,0,3.79-1.7,3.79-3.79,0-.61-.14-1.19-.4-1.7-.07-.14-.15-.28-.24-.42-.06-.08-.12-.17-.18-.25-.7-.87-1.76-1.42-2.96-1.42-1.2,0-2.27.56-2.96,1.42-.06.08-.12.16-.18.25-.09.13-.17.27-.24.42ZM28.92,21.66c0-.73.4-1.36.99-1.7.29-.17.62-.26.98-.26s.69.09.98.26c.59.34.99.97.99,1.7,0,1.08-.88,1.96-1.96,1.96s-1.96-.88-1.96-1.96Z"/><path id="s-6" class="cls-1" d="M6.2,21.66c0,2.09,1.69,3.79,3.79,3.79,2.09,0,3.79-1.7,3.79-3.79,0-.78-.24-1.51-.64-2.12-.38-.56-.91-1.02-1.53-1.31-.27-.13-.57-.23-.88-.29-.24-.05-.48-.07-.74-.07-2.09,0-3.79,1.69-3.79,3.79ZM8.03,21.66c0-1.08.88-1.96,1.96-1.96.26,0,.51.05.74.14.36.14.66.39.88.7.22.32.35.7.35,1.12,0,1.08-.88,1.96-1.96,1.96-1.08,0-1.96-.88-1.96-1.96Z"/><rect id="white_stripe" class="cls-1" x="11.6" y="1.65" width="28.99" height=".49"/></g></g></svg>