<?xml version="1.0" encoding="UTF-8"?><svg id="Capa_2" xmlns="http://www.w3.org/2000/svg" viewBox="0 0 24.96 15.65"><defs><style>.cls-1{fill:#282828;stroke-width:0px;}</style></defs><g id="Capa_1-2"><path id="s" class="cls-1" d="M18.98,10.59c-.97,0-1.82.51-2.31,1.27h-8.23c-.31-.49-.77-.87-1.32-1.09V0h17.82v11.86h-3.66c-.48-.76-1.34-1.27-2.31-1.27Z"/><path id="s-2" class="cls-1" d="M24.96,12.89c0,.11-.05.22-.14.3-.09.08-.21.12-.34.12h-2.77c0-.37-.07-.72-.21-1.04h3.45v.62Z"/><path id="s-3" class="cls-1" d="M16.26,13.32h-7.39c0-.37-.07-.72-.21-1.04h7.8c-.13.32-.21.67-.21,1.04Z"/><path id="s-4" class="cls-1" d="M0,7.27v4.92c0,.29.11.58.33.8.22.22.51.33.8.33h2.28c0-1.5,1.22-2.73,2.73-2.73.15,0,.3.01.45.04V2.84s-1.84,0-2.78.15c-.94.14-1.93.79-2.68,1.54S0,6.28,0,7.27ZM.79,7.19c0-.73.28-1.45.83-2.01.55-.55,1.28-1.03,1.97-1.13.69-.1,2.04-.11,2.04-.11v3.45c0,.09-.03.18-.09.26-.06.07-.14.12-.23.14l-4.04.81c-.11.02-.24,0-.33-.08-.1-.08-.15-.19-.15-.31v-1.01Z"/><path id="s-5" class="cls-1" d="M16.9,12.27c-.16.31-.25.67-.25,1.04,0,1.29,1.04,2.33,2.33,2.33,1.29,0,2.33-1.04,2.33-2.33,0-.38-.09-.73-.25-1.04-.04-.09-.09-.17-.15-.26-.04-.05-.07-.1-.11-.15-.43-.53-1.08-.88-1.82-.88s-1.39.34-1.82.88c-.04.05-.08.1-.11.15-.05.08-.11.17-.15.26ZM17.78,13.32c0-.45.24-.84.61-1.04.18-.1.38-.16.6-.16s.42.06.6.16c.36.21.61.6.61,1.04,0,.67-.54,1.21-1.21,1.21s-1.21-.54-1.21-1.21Z"/><path id="s-6" class="cls-1" d="M3.81,13.32c0,1.29,1.04,2.33,2.33,2.33,1.29,0,2.33-1.04,2.33-2.33,0-.48-.15-.93-.4-1.3-.23-.35-.56-.63-.94-.81-.17-.08-.35-.14-.54-.18-.15-.03-.3-.04-.45-.04-1.29,0-2.33,1.04-2.33,2.33ZM4.93,13.32c0-.67.54-1.21,1.21-1.21.16,0,.31.03.45.09.22.09.41.24.54.43.14.19.21.43.21.69,0,.67-.54,1.21-1.21,1.21s-1.21-.54-1.21-1.21Z"/><rect id="white_stripe" class="cls-1" x="7.13" y="1.02" width="17.82" height=".3"/></g></svg>