<?xml version="1.0" encoding="UTF-8"?><svg id="Capa_2" xmlns="http://www.w3.org/2000/svg" viewBox="0 0 26.03 26.03"><defs><style>.cls-1{fill:#282828;fill-rule:evenodd;stroke-width:0px;}</style></defs><g id="Capa_1-2"><path class="cls-1" d="M13.01,8.88c.58,0,1.06.48,1.06,1.06s-.48,1.06-1.06,1.06-1.06-.48-1.06-1.06.48-1.06,1.06-1.06h0ZM13.01,12.75c1.55,0,2.81-1.26,2.81-2.81s-1.26-2.81-2.81-2.81-2.81,1.26-2.81,2.81,1.26,2.81,2.81,2.81Z"/><path class="cls-1" d="M9.89,17.15c.38-1.36,1.64-2.36,3.12-2.36s2.74,1,3.12,2.36h-6.24ZM13.01,13.03c-2.75,0-4.99,2.24-4.99,4.99,0,.48.39.88.88.88h8.23c.48,0,.88-.39.88-.88,0-2.75-2.24-4.99-4.99-4.99Z"/><path class="cls-1" d="M13.89,22.61v-.71c0-.48-.39-.88-.88-.88s-.88.39-.88.88v.71c-4.61-.42-8.3-4.1-8.72-8.72h.71c.48,0,.88-.39.88-.88s-.39-.88-.88-.88h-.71C3.84,7.52,7.52,3.84,12.14,3.42v.71c0,.48.39.88.88.88s.88-.39.88-.88v-.71c4.61.42,8.3,4.1,8.72,8.72h-.71c-.48,0-.88.39-.88.88s.39.88.88.88h.71c-.42,4.61-4.1,8.3-8.72,8.72h0ZM25.15,12.14h-.79c-.43-5.58-4.9-10.05-10.48-10.48v-.79c0-.48-.39-.88-.88-.88s-.88.39-.88.88v.79C6.56,2.09,2.09,6.56,1.66,12.14h-.79c-.48,0-.88.39-.88.88s.39.88.88.88h.79c.43,5.58,4.89,10.05,10.47,10.48v.79c0,.48.39.88.88.88s.88-.39.88-.88v-.79c5.58-.43,10.05-4.89,10.48-10.48h.79c.48,0,.88-.39.88-.88s-.39-.88-.88-.88Z"/></g></svg>